
        <svg xmlns="http://www.w3.org/2000/svg" xmlns:xlink="http://www.w3.org/1999/xlink" version="1.1" width="3174.4432054531935" 
        height="1264.7132395356484" viewBox="0 0 3174.4432054531935 1264.7132395356484">
			<rect fill="#53354a" width="3174.4432054531935" height="1264.7132395356484"/>
			<g transform="scale(8.722160272659645) translate(10, 10)">
				<defs id="SvgjsDefs8783"><linearGradient id="SvgjsLinearGradient8788"><stop id="SvgjsStop8789" stop-color="#fe8dc6" offset="0"></stop><stop id="SvgjsStop8790" stop-color="#fed1c7" offset="1"></stop></linearGradient></defs><g id="SvgjsG8784" featureKey="symbolFeature-0" transform="matrix(0.5025125628140703,0,0,0.5025125628140703,102.40201005025125,-14.572864321608039)" fill="url(#SvgjsLinearGradient8788)"><g xmlns="http://www.w3.org/2000/svg"><path fill-rule="evenodd" clip-rule="evenodd" d="M130.6,61.8c1.8,1.1,4.4,3.8,4.4,9.5c0,4.7-5.4,7.2-10.3,8.5   c-9.9,1.1-16.7,3.5-16.7,6.3c0,3.9,13.2,7,29.5,7s29.5-3.1,29.5-7c0-2.8-6.9-5.2-16.8-6.3c-5.3-1.3-11.3-3.8-11.2-8.5   c0.1-5.8,2.9-8.4,4.6-9.5C149.7,59.1,154,53,154,46c0-9.4-7.6-17-17-17c-9.4,0-17,7.6-17,17C120,53.1,124.4,59.3,130.6,61.8z    M124.6,40.7c1.2-3.2,3.8-5.7,6.9-7c0.8-0.3,1.6,0.1,2,0.8c0.3,0.8-0.1,1.6-0.8,2c-2.4,1-4.3,2.9-5.3,5.3c-0.3,0.8-1.2,1.2-1.9,0.8   C124.7,42.4,124.3,41.5,124.6,40.7z"></path><path fill-rule="evenodd" clip-rule="evenodd" d="M132.3,74.2c0.2-0.4,0.4-0.7,0.5-1.1C100.4,73.7,75,80.1,75,88   c0,8.3,28.2,15,63,15c34.8,0,63-6.7,63-15c0-8-26.4-14.6-59.7-15c0.2,0.4,0.3,0.7,0.6,1.1c24.2,0.5,43.2,5.3,43.2,11.2   c0,6.2-21.1,11.2-47.1,11.2c-26,0-47.1-5-47.1-11.2C90.9,79.6,109,74.8,132.3,74.2z"></path><path fill-rule="evenodd" clip-rule="evenodd" d="M238,90.5c0-12.8-43.1-23.2-96.9-23.5c-0.1,0.4-0.1,0.8-0.1,1.2   c43.3,0.3,78,8.7,78,19c0,10.5-36,19.1-80.5,19.1S58,97.8,58,87.3c0-10.1,33.2-18.4,75.1-19c0-0.4-0.1-0.8-0.1-1.3   C80.6,67.7,39,78,39,90.5c0,12.6,42.3,23,95.3,23.5c0.5,0.8,0.7,1.8,0.7,2.8c0,5.7-2.6,8.3-4.4,9.5c-6.2,2.5-10.6,8.6-10.6,15.8   c0,9.4,7.6,17,17,17s17-7.6,17-17c0-7-4.3-13.1-10.4-15.7c-1.7-1.1-4.5-3.7-4.6-9.5c0-1.1,0.3-2,0.8-2.9   C194.2,113.8,238,103.4,238,90.5z M133.5,152.8c-0.3,0.8-1.2,1.1-2,0.8c-3.2-1.3-5.7-3.8-6.9-7c-0.3-0.8,0.1-1.6,0.8-1.9   c0.8-0.3,1.6,0.1,1.9,0.8c0.9,2.4,2.9,4.4,5.3,5.3C133.5,151.2,133.8,152.1,133.5,152.8z"></path></g></g><g id="SvgjsG8785" featureKey="nameFeature-0" transform="matrix(1.4265334769603992,0,0,1.4265334769603992,-0.0000013604483384708397,67.93866092158403)" fill="#ffffff"><path d="M26.44 11.96 l0 6.2 l-20.24 0 l0 4.72 l14.76 0 l0 6.2 l-14.76 0 l0 10.92 l-6.2 0 l0 -12.8 l4.32 0 l0 -2.44 l-4.32 0 l0 -8.48 l4.32 0 l0 -4.32 l22.12 0 z M24.56 13.84 l-18.36 0 l0 2.44 l18.36 0 l0 -2.44 z M1.88 38.12 l2.44 0 l0 -9.04 l-2.44 0 l0 9.04 z M19.08 27.2 l0 -2.44 l-12.88 0 l0 2.44 l12.88 0 z M1.88 22.88 l2.44 0 l0 -4.72 l-2.44 0 l0 4.72 z M42.730000000000004 11.96 l0 21.84 l19.92 0 l0 6.2 l-21.8 0 l0 -4.32 l-4.32 0 l0 0 l0 -23.72 l6.2 0 z M38.410000000000004 13.84 l0 19.96 l2.44 0 l0 -19.96 l-2.44 0 z M42.730000000000004 38.12 l18.04 0 l0 -2.44 l-18.04 0 l0 2.44 z M91.97999999999999 33.76 l0 -21.8 l6.24 0 l0 23.68 l-4.36 0 l0 4.36 l-17.96 0 l0 -4.36 l-4.36 0 l0 -23.68 l6.24 0 l0 21.8 l14.2 0 z M73.41999999999999 13.84 l0 19.92 l2.48 0 l0 -19.92 l-2.48 0 z M77.77999999999999 38.12 l14.2 0 l0 -2.48 l-14.2 0 l0 2.48 z M93.85999999999999 13.84 l0 19.92 l2.48 0 l0 -19.92 l-2.48 0 z M114.50999999999999 40 l-6.2 0 l0 -28.04 l6.2 0 l0 28.04 z M110.18999999999998 38.12 l2.44 0 l0 -24.28 l-2.44 0 l0 24.28 z M150.32 22.56 c0.56 2.28 0.56 4.56 0 6.84 c-1.6 6.24 -7.12 10.6 -13.6 10.6 l-7.76 0 l0 -4.36 l-4.36 0 l0 -19.32 l4.36 0 l0 -4.36 l7.76 0 c6.48 0 12 4.36 13.6 10.6 z M126.47999999999999 18.2 l0 15.56 l2.48 0 l0 -15.56 l-2.48 0 z M130.84 18.2 l0 15.56 l5.64 0 c3.8 0 6.92 -2.32 7.76 -5.84 c0.32 -1.32 0.32 -2.6 0 -3.88 c-0.84 -3.52 -3.92 -5.84 -7.76 -5.84 l-5.64 0 z M148.48 28.96 c0.52 -2.04 0.48 -4.04 0 -5.92 c-1.36 -5.4 -6.24 -9.2 -11.76 -9.2 l-5.88 0 l0 2.48 l5.64 0 c4.68 0 8.52 2.92 9.6 7.24 c0.4 1.64 0.4 3.28 0 4.84 c-1.04 4.32 -4.96 7.24 -9.6 7.24 l-5.64 0 l0 2.48 l5.88 0 c5.52 0 10.4 -3.76 11.76 -9.16 z M165.85 40 l-6.2 0 l0 -28.04 l6.2 0 l0 28.04 z M161.53 38.12 l2.44 0 l0 -24.28 l-2.44 0 l0 24.28 z M188.74 11.96 l11.96 0 l0 6.2 l-10.08 0 l0 21.84 l-6.2 0 l0 -21.84 l-10.08 0 l0 -6.2 l11.96 0 l0 4.36 l2.44 0 l0 -4.36 z M176.22 13.84 l0 2.48 l8.2 0 l0 -2.48 l-8.2 0 z M186.3 38.12 l2.44 0 l0 -19.96 l-2.44 0 l0 19.96 z M190.62 16.32 l8.2 0 l0 -2.48 l-8.2 0 l0 2.48 z M233.27 11.96 l7.84 0 l-12.08 15.48 l0 12.56 l-6.2 0 l0 -12.56 l-12.04 -15.48 l7.84 0 l6.08 7.84 l0 6.28 l2.48 0 l0 -6.28 z M234.19000000000003 13.84 l-5.16 6.6 l0 3.96 l8.24 -10.56 l-3.08 0 z M222.83 20.44 l-5.12 -6.6 l-3.08 0 l8.2 10.56 l0 -3.96 z M224.71 38.12 l2.48 0 l0 -10.16 l-2.48 0 l0 10.16 z"></path></g>
			</g>
		</svg>
	