<?xml version="1.0" encoding="utf-8"?>
<!-- Generator: Adobe Illustrator 25.4.1, SVG Export Plug-In . SVG Version: 6.00 Build 0)  -->
<svg version="1.1" xmlns="http://www.w3.org/2000/svg" xmlns:xlink="http://www.w3.org/1999/xlink" x="0px" y="0px" width="820px"
	 height="630.404px" viewBox="0 0 820 630.404" style="enable-background:new 0 0 820 630.404;" xml:space="preserve">
<style type="text/css">
	.st0{fill:#F5F5F5;}
	.st1{opacity:0.1;}
	.st2{fill:#333333;}
	.st3{fill:#FEFEFE;}
	.st4{fill:#00A9D7;}
	.st5{fill:#1CD0BB;}
	.st6{fill:#4D5858;}
	.st7{fill:#318DDE;}
	.st8{fill:#F540DA;}
	.st9{fill:#80BC00;}
	.st10{fill:#B800E3;}
	.st11{fill:#FFA400;}
	.st12{fill:#FF414E;}
	.st13{fill:none;stroke:#333333;stroke-width:4;stroke-miterlimit:10;}
	.st14{fill:url(#Exclusion_12_00000030467117071324642150000006059928937094450346_);}
	.st15{fill:url(#Exclusion_12_00000154393500812569718400000010791759873493109947_);}
	.st16{opacity:0.3;fill:url(#Exclusion_12_00000163059379426196483610000008207928325630353573_);}
	
		.st17{fill:none;stroke:url(#Exclusion_12_00000098187101929019858970000014756972969219127468_);stroke-width:7;stroke-miterlimit:10;}
</style>
<g id="GUIDE">
	<rect x="84.882" y="122.658" class="st0" width="670.26" height="387.842"/>
	<g class="st1">
		<path class="st2" d="M754.244,468.653H86.013c-0.299,0-0.541-0.242-0.541-0.541s0.242-0.541,0.541-0.541h668.231
			c0.299,0,0.541,0.242,0.541,0.541S754.543,468.653,754.244,468.653z"/>
		<path class="st2" d="M754.244,425.897H86.013c-0.299,0-0.541-0.242-0.541-0.541s0.242-0.541,0.541-0.541h668.231
			c0.299,0,0.541,0.242,0.541,0.541S754.543,425.897,754.244,425.897z"/>
		<path class="st2" d="M754.244,383.142H86.013c-0.299,0-0.541-0.242-0.541-0.541s0.242-0.541,0.541-0.541h668.231
			c0.299,0,0.541,0.242,0.541,0.541S754.543,383.142,754.244,383.142z"/>
		<path class="st2" d="M754.244,340.386H86.013c-0.299,0-0.541-0.242-0.541-0.541s0.242-0.541,0.541-0.541h668.231
			c0.299,0,0.541,0.242,0.541,0.541S754.543,340.386,754.244,340.386z"/>
		<path class="st2" d="M754.244,297.63H86.013c-0.299,0-0.541-0.242-0.541-0.541s0.242-0.541,0.541-0.541h668.231
			c0.299,0,0.541,0.242,0.541,0.541S754.543,297.63,754.244,297.63z"/>
		<path class="st2" d="M754.244,254.874H86.013c-0.299,0-0.541-0.242-0.541-0.541s0.242-0.541,0.541-0.541h668.231
			c0.299,0,0.541,0.242,0.541,0.541S754.543,254.874,754.244,254.874z"/>
		<path class="st2" d="M754.244,212.118H86.013c-0.299,0-0.541-0.242-0.541-0.541s0.242-0.541,0.541-0.541h668.231
			c0.299,0,0.541,0.242,0.541,0.541S754.543,212.118,754.244,212.118z"/>
		<path class="st2" d="M754.244,169.362H86.013c-0.299,0-0.541-0.242-0.541-0.541s0.242-0.541,0.541-0.541h668.231
			c0.299,0,0.541,0.242,0.541,0.541S754.543,169.362,754.244,169.362z"/>
	</g>
	<g class="st1">
		<path class="st2" d="M658.925,514.146c-0.299,0-0.542-0.243-0.542-0.542V122.812c0-0.299,0.243-0.542,0.542-0.542
			s0.542,0.243,0.542,0.542v390.792C659.467,513.902,659.224,514.146,658.925,514.146z"/>
		<path class="st2" d="M563.187,514.146c-0.299,0-0.542-0.243-0.542-0.542V122.812c0-0.299,0.243-0.542,0.542-0.542
			s0.542,0.243,0.542,0.542v390.792C563.729,513.902,563.485,514.146,563.187,514.146z"/>
		<path class="st2" d="M467.448,514.146c-0.299,0-0.542-0.243-0.542-0.542V122.812c0-0.299,0.243-0.542,0.542-0.542
			s0.542,0.243,0.542,0.542v390.792C467.99,513.902,467.747,514.146,467.448,514.146z"/>
		<path class="st2" d="M371.71,514.146c-0.299,0-0.542-0.243-0.542-0.542V122.812c0-0.299,0.243-0.542,0.542-0.542
			s0.542,0.243,0.542,0.542v390.792C372.252,513.902,372.01,514.146,371.71,514.146z"/>
		<path class="st2" d="M275.972,514.146c-0.299,0-0.542-0.243-0.542-0.542V122.812c0-0.299,0.243-0.542,0.542-0.542
			s0.542,0.243,0.542,0.542v390.792C276.514,513.902,276.271,514.146,275.972,514.146z"/>
		<path class="st2" d="M180.234,514.146c-0.299,0-0.542-0.243-0.542-0.542V122.812c0-0.299,0.243-0.542,0.542-0.542
			s0.542,0.243,0.542,0.542v390.792C180.776,513.902,180.533,514.146,180.234,514.146z"/>
	</g>
</g>
<g id="spline">
	<g id="SvgjsG1037">
	</g>
	<g id="SvgjsG1132">
	</g>
	<g id="SvgjsG1133">
	</g>
	<g id="SvgjsG1134">
	</g>
	<polygon id="SvgjsRect1135" class="st3" points="112.774,139.626 112.774,139.626 112.774,139.626 	"/>
	<polygon id="SvgjsRect1136" class="st3" points="112.774,139.626 112.774,139.626 112.774,139.626 	"/>
	<path class="st4" d="M750.143,465.85c-10.624-11.872-69.188-72.211-92.338-92.646c-13.929-12.294-27.709-20.24-41.035-27.925
		c-19.913-11.482-38.722-22.328-56.318-46.067c-35.537-47.938-76.322-38.334-93.736-34.232l-1.72,0.402
		c-15.805,3.647-68.817,39.709-87.208,67.593c-27.968,42.403-62.112,63.895-101.489,63.897c-0.452,0-0.898-0.003-1.352-0.008
		c-38.292-0.506-49.371,17.809-60.111,35.491c-8.332,13.718-16.202,26.675-36.023,28.099c-15.861,1.132-47.254-4.896-70.177-9.303
		c-11.217-2.156-22.823-4.393-24.632-4.062l-0.858-3.906c2.322-0.516,10.157,0.948,26.246,4.041
		c22.704,4.365,53.802,10.353,69.135,9.24c17.76-1.275,24.771-12.818,32.89-26.185c10.796-17.773,23.003-37.89,63.58-37.415
		c22.197,0.277,42.833-6.518,61.337-20.192c13.757-10.167,26.225-23.873,38.115-41.899c18.83-28.549,73.353-65.528,89.647-69.289
		l1.703-0.398c16.618-3.914,60.765-14.308,97.866,35.744c17.103,23.071,35.561,33.714,55.104,44.983
		c13.498,7.783,27.455,15.831,41.684,28.391c23.242,20.516,82.014,81.066,92.672,92.977L750.143,465.85z"/>
	<circle class="st4" cx="180.205" cy="457.498" r="5.427"/>
	<circle class="st4" cx="85.361" cy="444.261" r="5.427"/>
	<circle class="st4" cx="276.191" cy="394.553" r="5.427"/>
	<circle class="st4" cx="371.505" cy="339.111" r="5.427"/>
	<circle class="st4" cx="467.491" cy="263.062" r="5.427"/>
	<circle class="st4" cx="562.806" cy="297.465" r="5.427"/>
	<circle class="st4" cx="659.128" cy="371.704" r="5.427"/>
	<circle class="st4" cx="753.322" cy="466.458" r="5.427"/>
	<path class="st5" d="M177.665,429.542c-17.535,0.001-49.797-26.862-73.494-46.592c-9.103-7.579-18.515-15.416-20.552-15.841
		c0.001,0,0.154,0.03,0.393-0.022l-0.868-3.904c2.54-0.568,6.733,2.661,23.586,16.693c21.003,17.489,56.139,46.786,71.795,45.636
		c17.592-1.264,24.67-21.986,32.867-45.981c10.679-31.263,22.78-66.671,62.751-66.671c0.285,0,0.564,0.002,0.852,0.005
		c24.322,0.303,31.569,24.45,39.241,50.016c9.108,30.35,18.52,61.718,57.094,58.328c53.853-4.756,74.657-44.397,87.085-68.083
		c3.369-6.42,6.03-11.492,8.598-14.206c5.876-6.211,12.762-27.554,20.734-52.268c8.521-26.409,18.179-56.342,30.189-79.971
		c14.288-28.107,29.03-41.182,45.018-40.004c29.341,2.18,44.648,35.372,59.452,67.471c10.922,23.683,21.237,46.052,36.444,56.028
		c26.486,17.375,58.784,31.217,96.182,47.245l-1.576,3.677c-37.571-16.102-70.019-30.008-96.799-47.577
		c-16.166-10.604-26.715-33.479-37.884-57.697c-14.318-31.048-29.124-63.152-56.116-65.157
		c-32.498-2.417-54.814,66.728-71.103,117.214c-8.458,26.213-15.138,46.918-21.636,53.788c-2.188,2.312-4.736,7.168-7.962,13.315
		c-11.969,22.807-34.247,65.26-90.276,70.208c-41.801,3.688-52.154-30.763-61.276-61.163c-7.552-25.166-14.074-46.899-35.459-47.165
		c-37.793-0.481-49.452,33.759-59.768,63.959c-8.296,24.286-16.132,47.226-36.366,48.679
		C178.437,429.528,178.054,429.542,177.665,429.542z"/>
	<circle class="st5" cx="180.205" cy="427.507" r="5.427"/>
	<circle class="st5" cx="85.361" cy="364.261" r="5.427"/>
	<circle class="st5" cx="276.191" cy="314.553" r="5.427"/>
	<circle class="st5" cx="371.505" cy="423.2" r="5.427"/>
	<circle class="st5" cx="467.491" cy="339.939" r="5.427"/>
	<circle class="st5" cx="562.806" cy="168.166" r="5.427"/>
	<circle class="st5" cx="659.128" cy="291.704" r="5.427"/>
	<circle class="st5" cx="753.322" cy="339.218" r="5.427"/>
	
		<image style="overflow:visible;" width="902" height="442" xlink:href="../REFERENCE IMAGE FILES/Spline-chart.png"  transform="matrix(0.4593 0 0 0.4593 847.5798 117.1196)">
	</image>
	<g>
		<path class="st6" d="M63.397,536.019l1.458-1.513c0.738,0.954,1.477,1.494,2.539,1.494c1.188,0,1.999-0.792,1.999-2.484v-8.246
			h2.287v8.318c0,1.494-0.45,2.61-1.188,3.349s-1.8,1.116-3.061,1.116C65.486,538.053,64.226,537.152,63.397,536.019z"/>
		<path class="st6" d="M78.735,525.179h2.053l5.545,12.694h-2.341l-1.278-3.043h-5.959l-1.297,3.043h-2.269L78.735,525.179z
			 M81.904,532.867l-2.179-5.041l-2.161,5.041H81.904z"/>
		<path class="st6" d="M88.49,525.27h2.053l6.752,8.714v-8.714h2.179v12.604h-1.855l-6.95-8.967v8.967H88.49V525.27z"/>
	</g>
	<g>
		<path class="st6" d="M46.558,463.859l-2.269,0.631l-0.468-1.801l3.403-1.08h1.53v12.693h-2.196V463.859z"/>
		<path class="st6" d="M51.507,468.037v-0.036c0-3.601,2.197-6.518,5.51-6.518c3.295,0,5.474,2.881,5.474,6.481v0.036
			c0,3.602-2.197,6.518-5.51,6.518S51.507,471.638,51.507,468.037z M60.204,468.037v-0.036c0-2.484-1.278-4.52-3.223-4.52
			c-1.945,0-3.187,1.98-3.187,4.483v0.036c0,2.484,1.26,4.52,3.223,4.52C58.979,472.521,60.204,470.504,60.204,468.037z"/>
	</g>
	<g>
		<path class="st6" d="M51.507,510.986v-0.036c0-3.602,2.197-6.519,5.51-6.519c3.295,0,5.474,2.881,5.474,6.482v0.036
			c0,3.601-2.197,6.518-5.51,6.518S51.507,514.587,51.507,510.986z M60.204,510.986v-0.036c0-2.485-1.278-4.52-3.223-4.52
			c-1.945,0-3.187,1.98-3.187,4.483v0.036c0,2.484,1.26,4.519,3.223,4.519C58.979,515.469,60.204,513.452,60.204,510.986z"/>
	</g>
	<g>
		<path class="st6" d="M40.33,429.607l4.339-3.69c1.729-1.477,2.358-2.269,2.358-3.403c0-1.242-0.882-1.963-2.035-1.963
			s-1.944,0.631-2.898,1.891l-1.584-1.242c1.206-1.675,2.395-2.629,4.645-2.629c2.467,0,4.159,1.513,4.159,3.764v0.035
			c0,1.981-1.044,3.062-3.277,4.88l-2.593,2.161h5.996v1.944H40.33V429.607z"/>
		<path class="st6" d="M51.507,425.089v-0.036c0-3.602,2.197-6.519,5.51-6.519c3.295,0,5.474,2.881,5.474,6.482v0.036
			c0,3.601-2.197,6.518-5.51,6.518S51.507,428.689,51.507,425.089z M60.204,425.089v-0.036c0-2.485-1.278-4.52-3.223-4.52
			c-1.945,0-3.187,1.98-3.187,4.483v0.036c0,2.484,1.26,4.519,3.223,4.519C58.979,429.571,60.204,427.555,60.204,425.089z"/>
	</g>
	<g>
		<path class="st6" d="M40.132,386.407l1.548-1.44c0.9,1.062,1.909,1.656,3.313,1.656c1.242,0,2.179-0.756,2.179-1.908v-0.036
			c0-1.243-1.134-1.945-2.899-1.945h-1.026l-0.36-1.386l3.403-3.619h-5.456v-1.926h8.336v1.656l-3.511,3.601
			c1.909,0.234,3.709,1.207,3.709,3.529v0.036c0,2.323-1.783,3.997-4.412,3.997C42.76,388.621,41.194,387.703,40.132,386.407z"/>
		<path class="st6" d="M51.508,382.14v-0.036c0-3.601,2.197-6.518,5.51-6.518c3.295,0,5.474,2.881,5.474,6.482v0.036
			c0,3.601-2.197,6.518-5.51,6.518S51.508,385.74,51.508,382.14z M60.205,382.14v-0.036c0-2.485-1.279-4.52-3.223-4.52
			c-1.945,0-3.187,1.98-3.187,4.483v0.036c0,2.484,1.26,4.519,3.223,4.519C58.98,386.623,60.205,384.606,60.205,382.14z"/>
	</g>
	<g>
		<path class="st6" d="M45.624,342.63h-6.355l-0.414-1.584l7.004-8.283h1.891v8.048h1.8v1.819h-1.8v2.827h-2.125V342.63z
			 M45.624,340.811v-4.987l-4.141,4.987H45.624z"/>
		<path class="st6" d="M51.508,339.191v-0.036c0-3.601,2.197-6.518,5.51-6.518c3.295,0,5.474,2.881,5.474,6.482v0.036
			c0,3.601-2.197,6.518-5.51,6.518S51.508,342.792,51.508,339.191z M60.205,339.191v-0.036c0-2.485-1.279-4.52-3.223-4.52
			c-1.945,0-3.187,1.98-3.187,4.483v0.036c0,2.484,1.26,4.519,3.223,4.519C58.98,343.674,60.205,341.657,60.205,339.191z"/>
	</g>
	<g>
		<path class="st6" d="M40.114,300.797l1.369-1.603c1.008,0.936,2.07,1.512,3.241,1.512c1.513,0,2.503-0.864,2.503-2.178v-0.036
			c0-1.278-1.081-2.089-2.611-2.089c-0.9,0-1.674,0.252-2.323,0.558l-1.333-0.882l0.36-6.176h7.544v1.962h-5.635l-0.198,2.953
			c0.594-0.216,1.152-0.36,1.999-0.36c2.449,0,4.393,1.296,4.393,3.961v0.036c0,2.575-1.89,4.267-4.681,4.267
			C42.814,302.723,41.302,301.949,40.114,300.797z"/>
		<path class="st6" d="M51.508,296.242v-0.036c0-3.601,2.197-6.518,5.51-6.518c3.295,0,5.474,2.881,5.474,6.482v0.036
			c0,3.601-2.197,6.518-5.51,6.518S51.508,299.842,51.508,296.242z M60.205,296.242v-0.036c0-2.485-1.279-4.52-3.223-4.52
			c-1.945,0-3.187,1.98-3.187,4.483v0.036c0,2.484,1.26,4.519,3.223,4.519C58.98,300.725,60.205,298.708,60.205,296.242z"/>
	</g>
	<g>
		<path class="st6" d="M41.23,258.442c-0.954-0.954-1.53-2.269-1.53-4.808v-0.036c0-3.853,1.836-6.859,5.401-6.859
			c1.639,0,2.755,0.521,3.854,1.404l-1.188,1.71c-0.882-0.684-1.621-1.098-2.737-1.098c-2.197,0-2.989,2.286-3.025,4.015
			c0.738-0.774,1.674-1.278,3.025-1.278c2.431,0,4.393,1.44,4.393,3.961v0.036c0,2.503-2.034,4.285-4.681,4.285
			C43.193,259.774,42.076,259.289,41.23,258.442z M47.208,255.58v-0.036c0-1.261-1.008-2.197-2.575-2.197s-2.557,1.009-2.557,2.215
			v0.036c0,1.278,1.044,2.251,2.611,2.251S47.208,256.876,47.208,255.58z"/>
		<path class="st6" d="M51.507,253.293v-0.036c0-3.601,2.197-6.518,5.51-6.518c3.295,0,5.474,2.881,5.474,6.481v0.036
			c0,3.602-2.197,6.518-5.51,6.518S51.507,256.894,51.507,253.293z M60.204,253.293v-0.036c0-2.484-1.278-4.52-3.223-4.52
			c-1.945,0-3.187,1.98-3.187,4.483v0.036c0,2.484,1.26,4.52,3.223,4.52C58.979,257.776,60.204,255.76,60.204,253.293z"/>
	</g>
	<g>
		<path class="st6" d="M47.441,205.951h-6.338v-1.944h8.859v1.674L44.29,216.61h-2.502L47.441,205.951z"/>
		<path class="st6" d="M51.507,210.345v-0.036c0-3.601,2.197-6.518,5.51-6.518c3.295,0,5.474,2.881,5.474,6.482v0.036
			c0,3.601-2.197,6.518-5.51,6.518S51.507,213.945,51.507,210.345z M60.204,210.345v-0.036c0-2.485-1.278-4.52-3.223-4.52
			c-1.945,0-3.187,1.98-3.187,4.483v0.036c0,2.484,1.26,4.519,3.223,4.519C58.979,214.828,60.204,212.811,60.204,210.345z"/>
	</g>
	<g>
		<path class="st6" d="M40.006,170.222v-0.036c0-1.512,0.846-2.467,2.269-3.061c-1.062-0.558-1.836-1.404-1.836-2.809v-0.036
			c0-1.927,1.854-3.403,4.375-3.403c2.521,0,4.375,1.458,4.375,3.403v0.036c0,1.404-0.774,2.25-1.836,2.809
			c1.386,0.63,2.269,1.531,2.269,3.025v0.036c0,2.25-2.053,3.655-4.807,3.655C42.059,173.841,40.006,172.401,40.006,170.222z
			 M47.46,170.096v-0.036c0-1.152-1.152-1.909-2.646-1.909c-1.495,0-2.629,0.756-2.629,1.909v0.036c0,1.026,0.972,1.891,2.629,1.891
			C46.47,171.987,47.46,171.141,47.46,170.096z M47.064,164.532v-0.036c0-0.973-0.9-1.765-2.25-1.765
			c-1.351,0-2.251,0.792-2.251,1.747v0.036c0,1.098,0.955,1.872,2.251,1.872S47.064,165.613,47.064,164.532z"/>
		<path class="st6" d="M51.508,167.396v-0.036c0-3.601,2.197-6.518,5.51-6.518c3.295,0,5.474,2.881,5.474,6.482v0.036
			c0,3.601-2.197,6.518-5.51,6.518S51.508,170.996,51.508,167.396z M60.205,167.396v-0.036c0-2.485-1.279-4.52-3.223-4.52
			c-1.945,0-3.187,1.98-3.187,4.483v0.036c0,2.484,1.26,4.519,3.223,4.519C58.98,171.878,60.205,169.862,60.205,167.396z"/>
	</g>
	<g>
		<path class="st6" d="M47.172,124.933c-0.702,0.846-1.674,1.351-2.971,1.351c-2.683,0-4.465-1.566-4.465-3.998v-0.036
			c0-2.467,1.908-4.357,4.699-4.357c1.584,0,2.611,0.45,3.511,1.333c0.918,0.936,1.512,2.323,1.512,4.807v0.036
			c0,4.051-1.999,6.86-5.401,6.86c-1.747,0-2.971-0.63-4.033-1.512l1.206-1.692c0.955,0.792,1.801,1.188,2.881,1.188
			C46.344,128.912,47.154,126.607,47.172,124.933z M47.082,122.16v-0.036c0-1.314-1.026-2.323-2.629-2.323
			c-1.566,0-2.503,1.044-2.503,2.341v0.036c0,1.314,1.008,2.251,2.575,2.251C46.127,124.429,47.082,123.384,47.082,122.16z"/>
		<path class="st6" d="M51.507,124.447v-0.036c0-3.601,2.197-6.518,5.51-6.518c3.295,0,5.474,2.881,5.474,6.482v0.036
			c0,3.601-2.197,6.518-5.51,6.518S51.507,128.047,51.507,124.447z M60.204,124.447v-0.036c0-2.485-1.278-4.52-3.223-4.52
			c-1.945,0-3.187,1.98-3.187,4.483v0.036c0,2.484,1.26,4.519,3.223,4.519C58.979,128.93,60.204,126.913,60.204,124.447z"/>
	</g>
	<g>
		<path class="st6" d="M161.125,525.27h9.381v2.017h-7.167v3.438h6.356v2.017h-6.356v5.132h-2.214V525.27z"/>
		<path class="st6" d="M172.932,525.27h9.345v1.98h-7.13v3.276h6.32v1.98h-6.32v3.386h7.22v1.98h-9.435V525.27z"/>
		<path class="st6" d="M184.992,525.27h5.653c1.44,0,2.575,0.396,3.295,1.116c0.558,0.558,0.846,1.242,0.846,2.088v0.036
			c0,1.513-0.864,2.323-1.801,2.81c1.477,0.504,2.503,1.35,2.503,3.061v0.036c0,2.25-1.854,3.457-4.664,3.457h-5.833V525.27z
			 M192.572,528.834c0-0.99-0.792-1.603-2.215-1.603h-3.187v3.35h3.025c1.422,0,2.376-0.559,2.376-1.711V528.834z M190.682,532.453
			h-3.511v3.457h3.673c1.513,0,2.431-0.594,2.431-1.729v-0.036C193.274,533.083,192.428,532.453,190.682,532.453z"/>
	</g>
	<g>
		<path class="st6" d="M242.465,525.27h2.358l3.835,5.959l3.835-5.959h2.359v12.604h-2.215v-9.039l-3.979,5.942h-0.072l-3.943-5.906
			v9.003h-2.179V525.27z"/>
		<path class="st6" d="M262.554,525.179h2.052l5.546,12.694h-2.341l-1.278-3.043h-5.96l-1.296,3.043h-2.269L262.554,525.179z
			 M265.723,532.867l-2.179-5.041l-2.161,5.041H265.723z"/>
		<path class="st6" d="M272.309,525.27h5.618c1.584,0,2.827,0.468,3.637,1.26c0.666,0.685,1.044,1.621,1.044,2.719v0.036
			c0,2.07-1.242,3.313-2.989,3.817l3.403,4.771h-2.628l-3.097-4.394h-2.773v4.394h-2.214V525.27z M277.764,531.517
			c1.584,0,2.593-0.828,2.593-2.106v-0.036c0-1.351-0.972-2.088-2.611-2.088h-3.223v4.23H277.764z"/>
		<path class="st6" d="M284.765,531.607v-0.036c0-3.583,2.683-6.519,6.5-6.519c2.322,0,3.727,0.811,4.933,1.963l-1.422,1.639
			c-1.008-0.937-2.088-1.566-3.529-1.566c-2.395,0-4.16,1.98-4.16,4.447v0.036c0,2.467,1.747,4.465,4.16,4.465
			c1.548,0,2.539-0.612,3.619-1.62l1.423,1.44c-1.314,1.368-2.755,2.232-5.114,2.232
			C287.501,538.089,284.765,535.226,284.765,531.607z"/>
		<path class="st6" d="M298.606,525.27h2.214v5.239h6.014v-5.239h2.215v12.604h-2.215v-5.312h-6.014v5.312h-2.214V525.27z"/>
	</g>
	<g>
		<path class="st6" d="M348.859,525.179h2.053l5.545,12.694h-2.341l-1.278-3.043h-5.959l-1.297,3.043h-2.269L348.859,525.179z
			 M352.028,532.867l-2.179-5.041l-2.161,5.041H352.028z"/>
		<path class="st6" d="M358.613,525.27h4.969c2.953,0,4.79,1.674,4.79,4.213v0.036c0,2.826-2.269,4.303-5.042,4.303h-2.503v4.052
			h-2.214V525.27z M363.403,531.823c1.674,0,2.719-0.937,2.719-2.251v-0.036c0-1.477-1.062-2.25-2.719-2.25h-2.575v4.537H363.403z"
			/>
		<path class="st6" d="M370.637,525.27h5.618c1.584,0,2.827,0.468,3.637,1.26c0.666,0.685,1.044,1.621,1.044,2.719v0.036
			c0,2.07-1.242,3.313-2.989,3.817l3.403,4.771h-2.628l-3.097-4.394h-2.773v4.394h-2.214V525.27z M376.093,531.517
			c1.584,0,2.593-0.828,2.593-2.106v-0.036c0-1.351-0.972-2.088-2.611-2.088h-3.223v4.23H376.093z"/>
		<path class="st6" d="M383.777,525.27h2.214v12.604h-2.214V525.27z"/>
		<path class="st6" d="M389.357,525.27h2.214v10.587h6.626v2.017h-8.841V525.27z"/>
	</g>
	<g>
		<path class="st6" d="M446.95,525.27h2.358l3.836,5.959l3.835-5.959h2.358v12.604h-2.215v-9.039l-3.979,5.942h-0.072l-3.943-5.906
			v9.003h-2.179V525.27z"/>
		<path class="st6" d="M467.04,525.179h2.053l5.545,12.694h-2.341l-1.278-3.043h-5.959l-1.297,3.043h-2.269L467.04,525.179z
			 M470.209,532.867l-2.179-5.041l-2.161,5.041H470.209z"/>
		<path class="st6" d="M478.523,532.903l-5.005-7.634h2.629l3.511,5.563l3.564-5.563h2.539l-5.005,7.58v5.023h-2.233V532.903z"/>
	</g>
	<g>
		<path class="st6" d="M537.909,536.019l1.459-1.513c0.738,0.954,1.477,1.494,2.539,1.494c1.188,0,1.998-0.792,1.998-2.484v-8.246
			h2.287v8.318c0,1.494-0.45,2.61-1.188,3.349s-1.801,1.116-3.062,1.116C539.998,538.053,538.738,537.152,537.909,536.019z"/>
		<path class="st6" d="M549.034,532.525v-7.256h2.215v7.166c0,2.341,1.206,3.583,3.187,3.583c1.963,0,3.169-1.171,3.169-3.493
			v-7.256h2.215v7.147c0,3.764-2.125,5.654-5.42,5.654C551.123,538.071,549.034,536.181,549.034,532.525z"/>
		<path class="st6" d="M562.857,525.27h2.053l6.752,8.714v-8.714h2.179v12.604h-1.854l-6.95-8.967v8.967h-2.179V525.27z"/>
		<path class="st6" d="M577.078,525.27h9.345v1.98h-7.131v3.276h6.32v1.98h-6.32v3.386h7.221v1.98h-9.435V525.27z"/>
	</g>
	<g>
		<path class="st6" d="M635.874,536.019l1.458-1.513c0.738,0.954,1.477,1.494,2.539,1.494c1.188,0,1.999-0.792,1.999-2.484v-8.246
			h2.286v8.318c0,1.494-0.45,2.61-1.188,3.349s-1.8,1.116-3.061,1.116C637.963,538.053,636.702,537.152,635.874,536.019z"/>
		<path class="st6" d="M646.998,532.525v-7.256h2.215v7.166c0,2.341,1.206,3.583,3.188,3.583c1.962,0,3.169-1.171,3.169-3.493
			v-7.256h2.214v7.147c0,3.764-2.124,5.654-5.419,5.654C649.087,538.071,646.998,536.181,646.998,532.525z"/>
		<path class="st6" d="M660.822,525.27h2.214v10.587h6.626v2.017h-8.84V525.27z"/>
		<path class="st6" d="M673.333,532.903l-5.005-7.634h2.628l3.512,5.563l3.564-5.563h2.539l-5.006,7.58v5.023h-2.232V532.903z"/>
	</g>
	<g>
		<path class="st6" d="M738.941,525.179h2.053l5.545,12.694h-2.341l-1.278-3.043h-5.959l-1.297,3.043h-2.269L738.941,525.179z
			 M742.11,532.867l-2.179-5.041l-2.161,5.041H742.11z"/>
		<path class="st6" d="M748.048,532.525v-7.256h2.215v7.166c0,2.341,1.206,3.583,3.187,3.583c1.963,0,3.169-1.171,3.169-3.493
			v-7.256h2.215v7.147c0,3.764-2.125,5.654-5.42,5.654C750.137,538.071,748.048,536.181,748.048,532.525z"/>
		<path class="st6" d="M761.313,531.607v-0.036c0-3.529,2.701-6.519,6.5-6.519c2.196,0,3.547,0.612,4.844,1.711l-1.404,1.675
			c-0.973-0.829-1.927-1.351-3.529-1.351c-2.323,0-4.087,2.034-4.087,4.447v0.036c0,2.593,1.71,4.501,4.285,4.501
			c1.188,0,2.269-0.378,3.043-0.954v-2.358h-3.224v-1.927h5.366v5.293c-1.243,1.062-3.025,1.963-5.258,1.963
			C763.906,538.089,761.313,535.28,761.313,531.607z"/>
	</g>
</g>
<g id="diagram_sample">
</g>
<g id="resources">
	<rect id="Rectangle_1718_8_" x="1365.284" y="-38.88" class="st7" width="35.501" height="43.55"/>
	<rect id="Rectangle_1719_8_" x="1076.999" y="-38.88" class="st8" width="35.501" height="43.55"/>
	<rect id="Rectangle_1720_8_" x="1149.07" y="-38.88" class="st9" width="35.501" height="43.55"/>
	<rect id="Rectangle_1721_8_" x="1293.213" y="-38.88" class="st10" width="35.501" height="43.55"/>
	<rect id="Rectangle_1722_8_" x="1004.927" y="-38.88" class="st4" width="35.501" height="43.55"/>
	<rect id="Rectangle_1723_17_" x="860.785" y="-38.88" class="st11" width="35.501" height="43.55"/>
	<rect id="Rectangle_1724_8_" x="1221.141" y="-38.88" class="st5" width="35.501" height="43.55"/>
	<rect id="Rectangle_1725_8_" x="932.856" y="-38.88" class="st12" width="35.501" height="43.55"/>
	<g id="Rectangle_1718_6_">
		<path class="st7" d="M1398.784-97.466v39.55h-31.501v-39.55H1398.784 M1400.784-99.466h-35.501v43.55h35.501V-99.466
			L1400.784-99.466z"/>
	</g>
	<g id="Rectangle_1719_6_">
		<path class="st8" d="M1110.499-97.466v39.55h-31.501v-39.55H1110.499 M1112.499-99.466h-35.501v43.55h35.501V-99.466
			L1112.499-99.466z"/>
	</g>
	<g id="Rectangle_1720_6_">
		<path class="st9" d="M1182.571-97.466v39.55h-31.501v-39.55H1182.571 M1184.571-99.466h-35.501v43.55h35.501V-99.466
			L1184.571-99.466z"/>
	</g>
	<g id="Rectangle_1721_6_">
		<path class="st10" d="M1326.713-97.466v39.55h-31.501v-39.55H1326.713 M1328.713-99.466h-35.501v43.55h35.501V-99.466
			L1328.713-99.466z"/>
	</g>
	<g id="Rectangle_1722_6_">
		<path class="st4" d="M1038.428-97.466v39.55h-31.501v-39.55H1038.428 M1040.428-99.466h-35.501v43.55h35.501V-99.466
			L1040.428-99.466z"/>
	</g>
	<g id="Rectangle_1723_12_">
		<path class="st11" d="M894.285-97.466v39.55h-31.501v-39.55H894.285 M896.285-99.466h-35.501v43.55h35.501V-99.466L896.285-99.466
			z"/>
	</g>
	<g id="Rectangle_1724_6_">
		<path class="st5" d="M1254.642-97.466v39.55h-31.501v-39.55H1254.642 M1256.642-99.466h-35.501v43.55h35.501V-99.466
			L1256.642-99.466z"/>
	</g>
	<g id="Rectangle_1725_6_">
		<path class="st12" d="M966.356-97.466v39.55h-31.501v-39.55H966.356 M968.356-99.466h-35.501v43.55h35.501V-99.466L968.356-99.466
			z"/>
	</g>
	<g>
		<g>
			<g>
				<line class="st13" x1="1163.271" y1="561.283" x2="1163.271" y2="612.021"/>
				<g>
					<polygon class="st2" points="1157.287,563.034 1163.271,552.672 1169.255,563.034 					"/>
				</g>
				<g>
					<polygon class="st2" points="1157.287,610.271 1163.271,620.633 1169.255,610.271 					"/>
				</g>
			</g>
		</g>
	</g>
	<g>
		<g>
			<g>
				<line class="st13" x1="987.646" y1="563.017" x2="1048.722" y2="615.048"/>
				<g>
					<polygon class="st2" points="985.098,568.708 981.09,557.433 992.859,559.598 					"/>
				</g>
				<g>
					<polygon class="st2" points="1043.509,618.468 1055.277,620.633 1051.269,609.358 					"/>
				</g>
			</g>
		</g>
	</g>
	<g>
		<g>
			<g>
				<line class="st13" x1="1473.236" y1="563.193" x2="1415.796" y2="614.873"/>
				<g>
					<polygon class="st2" points="1467.932,559.916 1479.638,557.433 1475.937,568.812 					"/>
				</g>
				<g>
					<polygon class="st2" points="1413.095,609.254 1409.394,620.633 1421.1,618.15 					"/>
				</g>
			</g>
		</g>
	</g>
	<rect x="147.706" y="651.302" class="st0" width="156.242" height="156.242"/>
	<rect x="-41.383" y="651.302" class="st2" width="156.242" height="156.242"/>
	
		<linearGradient id="Exclusion_12_00000018224805993653886120000006738475603239502237_" gradientUnits="userSpaceOnUse" x1="282.6038" y1="476.2989" x2="282.8311" y2="476.3938" gradientTransform="matrix(1.180000e-13 1920 162 -1.000000e-14 -76572.0547 -542115.3125)">
		<stop  offset="0" style="stop-color:#00B4E5"/>
		<stop  offset="1" style="stop-color:#1CD0BB"/>
	</linearGradient>
	<path id="Exclusion_12_3_" style="fill:url(#Exclusion_12_00000018224805993653886120000006738475603239502237_);" d="
		M518.897,681.249v-29.946h156.242v156.242H518.897v-69.129V681.249z"/>
	
		<linearGradient id="Exclusion_12_00000078743932403915009240000003739572844824263864_" gradientUnits="userSpaceOnUse" x1="281.3653" y1="489.0542" x2="281.5999" y2="489.1523" gradientTransform="matrix(1920 0 0 -162 -539505 79960.5)">
		<stop  offset="0" style="stop-color:#00B4E5"/>
		<stop  offset="1" style="stop-color:#1CD0BB"/>
	</linearGradient>
	
		<path id="Exclusion_12_00000043445088596753893760000010188161218428210823_" style="fill:url(#Exclusion_12_00000078743932403915009240000003739572844824263864_);" d="
		M920.968,805.777h-30.266v-162h157.911v162h-69.867H920.968z"/>
	
		<linearGradient id="Exclusion_12_00000008114345706501267530000009153025204898268821_" gradientUnits="userSpaceOnUse" x1="282.6038" y1="475.1474" x2="282.8311" y2="475.2424" gradientTransform="matrix(1.180000e-13 1920 162 -1.000000e-14 -76572.0547 -542115.3125)">
		<stop  offset="0" style="stop-color:#00B4E5"/>
		<stop  offset="1" style="stop-color:#1CD0BB"/>
	</linearGradient>
	<path id="Exclusion_12_1_" style="opacity:0.3;fill:url(#Exclusion_12_00000008114345706501267530000009153025204898268821_);" d="
		M332.366,681.249v-29.946h156.242v156.242H332.366v-69.129V681.249z"/>
	
		<linearGradient id="Exclusion_12_00000098181880320400096630000011096053311979203230_" gradientUnits="userSpaceOnUse" x1="884.9008" y1="683.5825" x2="688.2898" y2="775.2637">
		<stop  offset="0" style="stop-color:#00B4E5"/>
		<stop  offset="1" style="stop-color:#1CD0BB"/>
	</linearGradient>
	
		<path id="Exclusion_12_2_" style="fill:none;stroke:url(#Exclusion_12_00000098181880320400096630000011096053311979203230_);stroke-width:7;stroke-miterlimit:10;" d="
		M708.474,681.249v-29.946h156.242v156.242H708.474v-69.129V681.249z"/>
</g>
</svg>
