<?xml version="1.0" standalone="no"?>
<!DOCTYPE svg PUBLIC "-//W3C//DTD SVG 1.1//EN" "http://www.w3.org/Graphics/SVG/1.1/DTD/svg11.dtd">
<svg xmlns="http://www.w3.org/2000/svg">
<defs >
<font id="Outfit" horiz-adv-x="559" ><font-face
    font-family="Outfit Thin SemiBold"
    units-per-em="1000"
    panose-1="0 0 0 0 0 0 0 0 0 0"
    ascent="1000"
    descent="-260"
    alphabetic="0" />
<glyph unicode=" " horiz-adv-x="195" />
<glyph unicode="!" horiz-adv-x="274" d="M84 245L64 723H204L184 245H84ZM134 -10Q98 -10 75 14T52 73Q52 108 75 132T134 156Q170 156 193 132T216 73Q216 38 193 14T134 -10Z" />
<glyph unicode="&quot;" horiz-adv-x="441" d="M277 442L251 723H384L358 442H277ZM83 442L57 723H191L164 442H83Z" />
<glyph unicode="#" horiz-adv-x="652" d="M322 0L436 703H544L431 0H322ZM39 206V304H580V206H39ZM101 0L215 703H323L210 0H101ZM71 414V512H613V414H71Z" />
<glyph unicode="$" horiz-adv-x="594" d="M286 -10Q207 -10 149 19T42 106L130 195Q161 154 200 130T293 105Q347 105 378 127T409 189Q409 221 391 241T344 275T279 300T209 327T145 364T98 422T80 512Q80 576 110 621T194 690T316 714Q382 714 438 687T531 617L442
528Q412 562 381 580T313 598Q264 598 237 580T210 523Q210 494 228 476T275 445T340 420T411 393T476 354T524 293T542 200Q542 102 474 46T286 -10ZM262 -100V804H357V-100H262Z" />
<glyph unicode="%" horiz-adv-x="671" d="M181 424Q142 424 109 443T56 496T37 569Q37 610 56 642T108 693T181 713Q222 713 255 694T308 642T327 569Q327 529 308 496T256 444T181 424ZM181 519Q204 519 217 533T230 569Q230 591 217 605T181 619Q160 619 147
605T134 569Q134 547 147 533T181 519ZM489 -10Q449 -10 416 9T364 61T344 135Q344 176 363 208T415 259T489 279Q530 279 563 260T615 208T635 135Q635 94 616 62T564 10T489 -10ZM489 85Q511 85 525 99T539 135Q539 156 525 170T489 184Q468 184 455 170T441
135Q441 113 454 99T489 85ZM56 0L492 703H616L180 0H56Z" />
<glyph unicode="&amp;" horiz-adv-x="680" d="M518 0L190 360Q153 401 135 438T117 521Q117 574 143 618T216 688T323 714Q370 714 407 700T471 662T516 613L426 529Q405 558 381 574T325 591Q291 591 268 571T245 521Q245 493 257 474T290 429L673 0H518ZM283
-10Q211 -10 158 18T75 94T45 205Q45 269 79 320T182 403L241 319Q207 303 190 277T172 211Q172 181 186 159T226 124T286 111Q329 111 358 129T404 175L492 79Q472 55 440 35T368 3T283 -10Z" />
<glyph unicode="&apos;" horiz-adv-x="246" d="M83 442L56 723H190L163 442H83Z" />
<glyph unicode="(" horiz-adv-x="304" d="M211 -123Q157 -75 118 -7T57 143T36 313Q36 402 57 483T117 633T211 750L285 682Q220 620 185 526T149 313Q149 195 184 101T285 -55L211 -123Z" />
<glyph unicode=")" horiz-adv-x="304" d="M93 -123L20 -55Q85 7 120 101T155 313Q155 432 120 526T20 682L93 750Q148 702 187 634T247 484T269 313Q269 225 248 144T187 -6T93 -123Z" />
<glyph unicode="*" horiz-adv-x="490" d="M217 318L214 476L88 388L37 487L181 538L61 629L140 708L231 588L281 733L381 682L293 555L449 552L431 441L283 487L328 337L217 318Z" />
<glyph unicode="+" horiz-adv-x="555" d="M51 278V392H504V278H51ZM220 573H336V98H220V573Z" />
<glyph unicode="," horiz-adv-x="280" d="M57 -119L128 13L169 24Q162 11 153 2T132 -7Q107 -7 85 15T63 70Q63 106 87 131T147 156Q180 156 205 131T230 70Q230 56 224 37T202 -13L125 -155L57 -119Z" />
<glyph unicode="-" horiz-adv-x="462" d="M58 196V315H404V196H58Z" />
<glyph unicode="." horiz-adv-x="295" d="M148 -10Q112 -10 89 14T66 73Q66 108 89 132T148 156Q183 156 206 132T229 73Q229 38 206 14T148 -10Z" />
<glyph unicode="/" horiz-adv-x="393" d="M6 -47L269 748H387L124 -47H6Z" />
<glyph unicode="0" horiz-adv-x="660" d="M332 -10Q249 -10 182 35T76 162T36 353Q36 462 75 543T180 669T329 714Q413 714 479 669T585 543T624 351Q624 242 585 161T480 35T332 -10ZM330 113Q378 113 413 140T467 220T487 352Q487 431 468 484T413 563T329 590Q282
590 247 564T193 485T173 353Q173 273 192 220T247 140T330 113Z" />
<glyph unicode="1" horiz-adv-x="367" d="M161 0V703H295V0H161ZM23 585V703H285V585H23Z" />
<glyph unicode="2" horiz-adv-x="553" d="M26 78L291 355Q319 385 336 408T362 453T370 497Q370 541 342 566T268 591Q222 591 187 567T120 491L27 570Q69 641 131 677T275 714Q344 714 395 687T475 612T503 500Q503 457 493 422T458 353T390 275L197 78H26ZM26
0V78L142 118H518V0H26Z" />
<glyph unicode="3" horiz-adv-x="550" d="M249 -10Q178 -10 119 15T20 89L110 178Q130 148 167 130T247 112Q287 112 316 126T361 167T378 229Q378 266 362 292T314 332T240 346Q221 346 201 344T167 336L227 412Q252 420 276 425T322 431Q376 431 419 406T488
334T514 224Q514 154 481 102T389 20T249 -10ZM167 336V414L347 623L503 625L317 412L167 336ZM59 585V703H503V625L392 585H59Z" />
<glyph unicode="4" horiz-adv-x="604" d="M25 248L265 703H415L169 248H25ZM25 168V248L75 287H579V168H25ZM357 0V448H491V0H357Z" />
<glyph unicode="5" horiz-adv-x="553" d="M250 -10Q177 -10 117 15T17 89L107 178Q127 148 164 130T247 112Q288 112 318 127T366 169T384 234Q384 273 367 300T320 341T255 355Q217 355 187 346T128 315L136 401Q155 421 176 433T223 452T286 459Q363 459 414
428T493 344T520 228Q520 159 486 105T392 21T250 -10ZM128 315L63 379L95 703H218L182 374L128 315ZM116 585L95 703H481V585H116Z" />
<glyph unicode="6" horiz-adv-x="568" d="M284 -10Q212 -10 155 22T64 110T30 234Q30 327 94 421L289 703H445L232 405L182 391Q193 414 208 431T249 457T312 466Q375 466 426 437T508 356T539 237Q539 168 505 112T413 23T284 -10ZM284 112Q319 112 346 128T389
173T405 238Q405 274 389 302T346 347T284 363Q249 363 222 347T179 302T163 238Q163 202 178 174T221 129T284 112Z" />
<glyph unicode="7" horiz-adv-x="525" d="M120 0L367 624H501L261 0H120ZM23 585V703H501V624L450 585H23Z" />
<glyph unicode="8" horiz-adv-x="555" d="M278 -10Q203 -10 149 16T64 89T33 195Q33 244 52 284T106 351T190 390L187 357Q147 367 119 392T77 451T63 523Q63 580 90 623T166 690T278 714Q341 714 389 690T464 623T492 523Q492 486 478 452T437 392T368 357L365
390Q414 379 449 352T503 284T522 195Q522 136 492 89T407 16T278 -10ZM278 109Q311 109 337 122T377 160T392 214Q392 245 378 268T337 305T278 319Q244 319 219 306T178 269T163 214Q163 184 178 160T218 123T278 109ZM278 422Q317 422 342 447T367 511Q367 551
342 576T278 601Q239 601 214 576T188 512Q188 472 213 447T278 422Z" />
<glyph unicode="9" horiz-adv-x="568" d="M123 0L337 298L386 313Q374 290 359 273T319 246T256 237Q194 237 143 266T60 348T29 467Q29 535 63 591T155 681T284 714Q356 714 413 681T504 593T538 470Q538 377 473 282L278 0H123ZM284 341Q319 341 346 357T388
401T404 465Q404 502 389 530T346 574T284 591Q249 591 222 575T179 530T163 465Q163 429 178 401T222 357T284 341Z" />
<glyph unicode=":" horiz-adv-x="281" d="M140 -10Q104 -10 81 14T58 72Q58 108 81 132T140 156Q176 156 199 132T222 72Q222 38 199 14T140 -10ZM140 292Q104 292 81 316T58 375Q58 411 81 434T140 458Q176 458 199 435T222 375Q222 340 199 316T140 292Z" />
<glyph unicode=";" horiz-adv-x="275" d="M53 -119L123 13L164 24Q158 11 149 2T128 -7Q102 -7 80 15T58 70Q58 105 82 130T142 156Q175 156 200 131T225 70Q225 56 220 37T198 -13L120 -155L53 -119ZM138 292Q103 292 80 316T56 375Q56 411 79 434T138 458Q174
458 197 435T220 375Q220 340 197 316T138 292Z" />
<glyph unicode="&lt;" horiz-adv-x="564" d="M502 93L48 289V381L502 577V452L150 310V360L502 218V93Z" />
<glyph unicode="=" horiz-adv-x="555" d="M51 394V508H504V394H51ZM51 159V273H504V159H51Z" />
<glyph unicode="&gt;" horiz-adv-x="564" d="M62 452V577L516 381V289L62 93V218L414 360V310L62 452Z" />
<glyph unicode="?" horiz-adv-x="503" d="M207 244L203 436H238Q267 436 288 446T322 477T334 523Q334 549 323 568T290 597T240 608Q200 608 168 586T117 522L28 600Q58 663 114 698T247 734Q311 734 360 708T437 636T465 532Q465 476 441 434T375 365T277 327L324
381L315 244H207ZM260 -10Q225 -10 202 14T178 73Q178 108 201 132T260 156Q296 156 319 132T342 73Q342 38 319 14T260 -10Z" />
<glyph unicode="@" horiz-adv-x="747" d="M357 83Q319 83 287 102T234 156T214 231Q214 274 234 308T286 362T357 383Q405 383 434 361T463 290V175Q463 127 435 105T357 83ZM364 166Q392 166 408 185T425 232Q425 262 409 280T364 298Q336 298 319 280T302 232Q302
204 319 185T364 166ZM436 88V165L447 236L436 305V376H521V88H436ZM532 45L599 -23Q554 -62 498 -82T377 -102Q306 -102 245 -77T137 -7T66 99T40 231Q40 303 66 364T139 470T248 541T383 567Q478 567 551 525T665 409T706 237Q706 191 698 155T669 88L564 90Q579
109 588 132T603 182T608 242Q608 317 582 368T505 445T385 472Q313 472 259 443T174 360T144 230Q144 157 173 104T254 22T375 -7Q423 -7 462 6T532 45ZM477 166H669V88H477V166Z" />
<glyph unicode="A" horiz-adv-x="715" d="M20 0L303 703H414L696 0H551L333 577H383L162 0H20ZM170 131V245H548V131H170Z" />
<glyph unicode="B" horiz-adv-x="631" d="M172 0V111H355Q404 111 431 141T459 212Q459 240 447 263T412 299T355 313H172V423H340Q382 423 407 444T433 507Q433 550 408 571T340 592H172V703H356Q426 703 473 678T545 611T569 520Q569 460 533 417T426 352L432
396Q510 374 552 324T595 202Q595 146 568 101T488 28T360 0H172ZM72 0V703H207V0H72Z" />
<glyph unicode="C" horiz-adv-x="686" d="M398 -10Q321 -10 255 17T140 94T64 210T37 352Q37 428 63 494T139 609T254 686T398 714Q482 714 546 687T659 611L567 519Q538 551 496 569T398 587Q349 587 309 571T238 523T192 448T176 352Q176 299 192 256T238 182T308
133T398 116Q457 116 499 134T571 185L663 93Q614 44 549 17T398 -10Z" />
<glyph unicode="D" horiz-adv-x="747" d="M165 0V121H344Q412 121 463 149T542 230T571 353Q571 422 542 473T462 553T344 582H162V703H346Q424 703 490 677T606 604T683 492T711 352Q711 276 684 212T607 100T492 26T348 0H165ZM72 0V703H208V0H72Z" />
<glyph unicode="E" horiz-adv-x="602" d="M72 0V703H208V0H72ZM172 0V120H561V0H172ZM172 301V417H526V301H172ZM172 583V703H556V583H172Z" />
<glyph unicode="F" horiz-adv-x="578" d="M72 0V703H208V0H72ZM172 288V409H526V288H172ZM172 583V703H543V583H172Z" />
<glyph unicode="G" horiz-adv-x="778" d="M397 -10Q322 -10 257 17T142 95T65 210T37 352Q37 429 65 494T143 609T260 686T405 714Q492 714 565 682T686 590L594 498Q561 541 512 564T404 587Q337 587 286 558T205 476T176 353Q176 283 204 230T282 146T396 116Q462
116 509 140T581 212T606 329L695 268L388 271V389H746V370Q746 244 701 160T578 33T397 -10Z" />
<glyph unicode="H" horiz-adv-x="721" d="M72 0V703H208V0H72ZM513 0V703H649V0H513ZM158 303V423H551V303H158Z" />
<glyph unicode="I" horiz-adv-x="280" d="M72 0V703H208V0H72Z" />
<glyph unicode="J" horiz-adv-x="513" d="M212 -10Q148 -10 100 14T19 81L111 169Q129 143 154 130T211 116Q242 116 265 129T301 167T314 228V703H451V236Q451 162 422 107T339 21T212 -10Z" />
<glyph unicode="K" horiz-adv-x="688" d="M497 0L192 367L489 703H659L328 338L329 401L670 0H497ZM72 0V703H208V0H72Z" />
<glyph unicode="L" horiz-adv-x="556" d="M72 0V703H208V0H72ZM172 0V121H530V0H172Z" />
<glyph unicode="M" horiz-adv-x="850" d="M72 0V703H168L453 247H398L682 703H778V0H643V470L669 462L471 144H379L181 462L208 470V0H72Z" />
<glyph unicode="N" horiz-adv-x="727" d="M72 0V703H167L208 567V0H72ZM558 0L141 540L167 703L584 163L558 0ZM558 0L519 132V703H656V0H558Z" />
<glyph unicode="O" horiz-adv-x="800" d="M401 -11Q324 -11 258 17T142 94T64 210T36 353Q36 429 63 494T140 609T256 686T399 714Q477 714 543 687T658 610T736 494T764 352Q764 276 736 210T659 95T544 17T401 -11ZM399 116Q467 116 517 146T595 229T624 353Q624
405 608 448T562 522T491 571T399 588Q333 588 283 559T204 476T175 353Q175 300 191 256T237 181T308 133T399 116Z" />
<glyph unicode="P" horiz-adv-x="616" d="M172 261V372H335Q367 372 393 385T434 422T449 482Q449 516 434 541T393 579T335 592H172V703H349Q416 703 469 676T554 600T585 482Q585 414 554 365T470 288T349 261H172ZM72 0V703H208V0H72Z" />
<glyph unicode="Q" horiz-adv-x="820" d="M402 -11Q325 -11 259 17T142 94T65 210T37 353Q37 429 64 494T141 609T257 686T400 714Q477 714 543 687T659 610T736 494T764 352Q764 276 737 210T660 95T544 17T402 -11ZM400 116Q467 116 517 146T596 229T625 353Q625
405 609 448T562 522T491 571T400 588Q334 588 284 559T205 476T176 353Q176 300 192 256T238 181T309 133T400 116ZM719 -52L397 270L479 353L802 30L719 -52Z" />
<glyph unicode="R" horiz-adv-x="640" d="M172 294V400H335Q385 400 412 425T440 496Q440 537 413 564T335 592H172V703H347Q415 703 466 677T546 604T575 498Q575 436 547 391T466 320T345 294H172ZM72 0V703H208V0H72ZM456 0L224 304L349 343L621 0H456Z" />
<glyph unicode="S" horiz-adv-x="569" d="M276 -10Q191 -10 131 19T21 106L111 196Q142 155 183 133T283 110Q336 110 367 131T399 189Q399 221 381 241T334 275T269 300T198 327T133 364T85 422T67 512Q67 576 98 621T183 690T305 714Q377 714 435 687T530 617L440
527Q409 561 377 577T303 593Q256 593 229 575T202 523Q202 494 220 476T267 445T332 420T403 393T468 354T516 293T534 200Q534 102 465 46T276 -10Z" />
<glyph unicode="T" horiz-adv-x="629" d="M246 0V688H383V0H246ZM22 582V703H607V582H22Z" />
<glyph unicode="U" horiz-adv-x="696" d="M349 -10Q266 -10 202 26T100 127T63 272V703H199V268Q199 221 218 187T272 135T349 116Q392 116 425 134T477 187T497 267V703H634V271Q634 190 597 127T497 27T349 -10Z" />
<glyph unicode="V" horiz-adv-x="705" d="M297 0L20 703H167L381 134H324L540 703H685L405 0H297Z" />
<glyph unicode="W" horiz-adv-x="992" d="M250 0L22 703H156L325 162H280L446 703H547L713 162H667L837 703H971L742 0H641L474 540H518L352 0H250Z" />
<glyph unicode="X" horiz-adv-x="707" d="M528 0L326 313H306L32 703H193L394 408H414L687 0H528ZM20 0L283 376L383 309L174 0H20ZM421 334L321 401L521 703H675L421 334Z" />
<glyph unicode="Y" horiz-adv-x="679" d="M290 271L18 703H175L386 357H296L507 703H662L387 271H290ZM272 0V344H409V0H272Z" />
<glyph unicode="Z" horiz-adv-x="598" d="M32 95L401 608H563L194 95H32ZM32 0V95L134 120H555V0H32ZM53 583V703H563V608L460 583H53Z" />
<glyph unicode="[" horiz-adv-x="345" d="M69 -96V723H177V-96H69ZM122 -96V4H313V-96H122ZM122 624V723H313V624H122Z" />
<glyph unicode="\" horiz-adv-x="393" d="M269 -47L6 748H124L387 -47H269Z" />
<glyph unicode="]" horiz-adv-x="345" d="M168 -96V723H276V-96H168ZM32 -96V4H223V-96H32ZM32 624V723H223V624H32Z" />
<glyph unicode="^" horiz-adv-x="459" d="M315 455L204 661H256L144 455H39L188 723H270L419 455H315Z" />
<glyph unicode="_" horiz-adv-x="493" d="M0 -147V-40H493V-147H0Z" />
<glyph unicode="`" horiz-adv-x="308" d="M218 517L40 633L125 735L268 579L218 517Z" />
<glyph unicode="a" horiz-adv-x="588" d="M260 -10Q194 -10 141 23T58 113T28 241Q28 313 58 370T141 460T260 493Q312 493 353 472T418 414T445 329V155Q443 107 419 70T353 12T260 -10ZM284 111Q339 111 373 147T407 242Q407 280 392 309T349 355T284 372Q248
372 221 356T178 310T162 242Q162 203 177 174T220 128T284 111ZM400 0V130L421 248L400 364V483H530V0H400Z" />
<glyph unicode="b" horiz-adv-x="588" d="M326 -10Q274 -10 232 12T165 72T138 157V329Q140 376 165 413T233 472T326 493Q393 493 446 460T529 370T560 241Q560 170 530 113T446 23T326 -10ZM304 111Q340 111 367 127T410 173T426 242Q426 280 411 309T367 355T303
372Q267 372 240 356T197 310T181 242Q181 203 196 174T240 128T304 111ZM58 0V723H189V364L167 248L188 130V0H58Z" />
<glyph unicode="c" horiz-adv-x="492" d="M286 -10Q212 -10 153 23T60 113T26 241Q26 313 60 370T153 460T286 494Q343 494 391 473T474 413L390 328Q371 349 345 360T286 371Q250 371 222 355T177 310T160 242Q160 204 176 175T221 129T286 112Q319 112 345 123T391
157L476 72Q439 32 391 11T286 -10Z" />
<glyph unicode="d" horiz-adv-x="588" d="M262 -10Q195 -10 142 23T59 113T28 241Q28 313 58 370T141 460T262 493Q314 493 355 472T422 414T450 329V157Q448 110 423 72T356 12T262 -10ZM284 111Q321 111 348 127T391 173T407 242Q407 280 392 309T349 355T285
372Q248 372 221 355T178 309T162 242Q162 203 177 174T221 128T284 111ZM530 0H400V130L421 248L399 364V723H530V0Z" />
<glyph unicode="e" horiz-adv-x="541" d="M289 -10Q213 -10 154 22T61 112T26 242Q26 314 59 370T151 460T280 494Q350 494 403 463T487 377T518 253Q518 240 517 227T511 196L105 195V293L450 294L397 253Q395 296 382 325T343 369T280 385Q241 385 212 368T168
319T152 244Q152 200 168 168T216 118T288 100Q325 100 355 112T407 150L484 73Q449 32 399 11T289 -10Z" />
<glyph unicode="f" horiz-adv-x="419" d="M122 0V535Q122 593 147 637T218 708T326 734Q373 734 407 718T468 674L385 590Q374 601 361 607T328 613Q292 613 273 594T253 538V0H122ZM10 368V483H396V368H10Z" />
<glyph unicode="g" horiz-adv-x="579" d="M260 -214Q183 -214 124 -187T30 -109L113 -26Q141 -59 175 -76T259 -94Q320 -94 355 -63T391 23V144L413 250L392 356V483H522V25Q522 -47 489 -100T396 -184T260 -214ZM254 13Q189 13 137 44T56 131T26 254Q26 322 55
376T137 461T254 493Q308 493 349 472T415 415T441 329V177Q439 129 415 92T349 34T254 13ZM280 132Q316 132 342 147T384 190T399 253Q399 289 384 316T343 358T280 374Q244 374 217 359T175 316T160 253Q160 219 175 192T217 148T280 132Z" />
<glyph unicode="h" horiz-adv-x="562" d="M383 0V277Q383 320 356 347T286 374Q258 374 236 362T202 328T189 277L138 303Q138 360 162 402T228 469T326 493Q381 493 423 469T490 403T514 306V0H383ZM58 0V723H189V0H58Z" />
<glyph unicode="i" horiz-adv-x="248" d="M58 0V483H190V0H58ZM124 561Q92 561 71 582T50 636Q50 667 71 689T124 711Q157 711 177 689T198 636Q198 604 178 583T124 561Z" />
<glyph unicode="j" horiz-adv-x="257" d="M19 -214Q-33 -214 -67 -197T-130 -149L-47 -66Q-35 -81 -22 -87T10 -94Q35 -94 52 -79T69 -35V483H200V-33Q200 -90 176 -130T111 -192T19 -214ZM136 561Q104 561 83 582T62 636Q62 667 83 689T136 711Q169 711 189 689T210
636Q210 604 190 583T136 561Z" />
<glyph unicode="k" horiz-adv-x="528" d="M366 0L179 249L365 483H516L298 219L303 283L526 0H366ZM58 0V723H189V0H58Z" />
<glyph unicode="l" horiz-adv-x="247" d="M58 0V723H189V0H58Z" />
<glyph unicode="m" horiz-adv-x="867" d="M58 0V483H189V0H58ZM373 0V285Q373 327 347 350T281 374Q255 374 234 364T201 333T189 285L138 310Q138 366 162 407T229 470T324 493Q374 493 415 471T480 408T504 310V0H373ZM688 0V285Q688 327 662 350T596 374Q571
374 550 364T516 333T504 285L429 303Q433 361 460 403T531 469T629 493Q683 493 726 471T794 406T819 306V0H688Z" />
<glyph unicode="n" horiz-adv-x="562" d="M383 0V277Q383 320 356 347T286 374Q258 374 236 362T202 328T189 277L138 303Q138 360 162 402T230 469T329 493Q382 493 424 467T490 398T514 306V0H383ZM58 0V483H189V0H58Z" />
<glyph unicode="o" horiz-adv-x="569" d="M285 -10Q212 -10 154 23T61 114T26 243Q26 314 60 370T153 460T284 494Q358 494 416 461T509 371T543 243Q543 172 509 115T417 24T285 -10ZM284 112Q321 112 349 128T393 174T409 242Q409 280 393 309T349 354T284 371Q248
371 220 355T176 309T160 242Q160 204 176 175T220 129T284 112Z" />
<glyph unicode="p" horiz-adv-x="588" d="M326 -10Q274 -10 232 11T165 70T138 155V326Q140 374 165 411T232 471T326 493Q393 493 446 460T529 370T560 241Q560 170 530 113T446 23T326 -10ZM303 111Q339 111 367 127T410 173T426 242Q426 280 411 309T367 355T303
372Q268 372 240 356T197 310T181 242Q181 203 196 174T239 128T303 111ZM58 -202V483H189V356L167 239L188 122V-202H58Z" />
<glyph unicode="q" horiz-adv-x="588" d="M260 -10Q194 -10 141 23T58 113T28 241Q28 313 58 370T141 460T260 493Q312 493 353 472T418 414T445 329V155Q443 107 419 70T353 12T260 -10ZM284 111Q339 111 373 147T407 242Q407 280 392 309T349 355T284 372Q248
372 221 356T178 310T162 242Q162 203 177 174T220 128T284 111ZM400 -202V122L421 239L400 356V483H530V-202H400Z" />
<glyph unicode="r" horiz-adv-x="434" d="M58 0V483H189V0H58ZM189 267L138 301Q147 390 190 441T314 493Q349 493 377 482T428 444L346 350Q335 362 320 368T284 374Q242 374 216 348T189 267Z" />
<glyph unicode="s" horiz-adv-x="444" d="M224 -11Q183 -11 144 0T71 30T14 78L92 157Q117 129 150 115T223 101Q255 101 271 110T288 137Q288 157 271 168T225 186T167 203T108 228T63 271T45 343Q45 389 67 423T132 476T231 495Q291 495 339 474T420 411L341
332Q319 359 292 371T232 383Q203 383 188 374T172 349Q172 331 189 321T235 304T293 287T351 260T396 215T414 143Q414 72 363 31T224 -11Z" />
<glyph unicode="t" horiz-adv-x="389" d="M129 0V684H260V0H129ZM16 368V483H373V368H16Z" />
<glyph unicode="u" horiz-adv-x="528" d="M264 -10Q200 -10 151 17T73 92T45 203V483H177V206Q177 176 187 155T217 122T264 111Q305 111 328 136T351 206V483H482V203Q482 139 455 91T378 17T264 -10Z" />
<glyph unicode="v" horiz-adv-x="523" d="M215 0L2 483H146L299 85H228L382 483H521L309 0H215Z" />
<glyph unicode="w" horiz-adv-x="769" d="M187 0L6 483H138L256 132L216 131L337 483H432L553 131L513 132L631 483H763L583 0H488L366 334H403L281 0H187Z" />
<glyph unicode="x" horiz-adv-x="523" d="M360 0L233 196L206 216L18 483H173L290 306L315 287L514 0H360ZM8 0L205 276L280 187L156 0H8ZM320 217L243 305L358 483H505L320 217Z" />
<glyph unicode="y" horiz-adv-x="526" d="M210 -4L8 483H150L284 111H236L375 483H518L303 -3L210 -4ZM76 -202L223 109L303 -3L215 -202H76Z" />
<glyph unicode="z" horiz-adv-x="466" d="M24 75L280 408H438L182 75H24ZM24 0V75L128 114H432V0H24ZM42 369V483H438V408L333 369H42Z" />
<glyph unicode="{" horiz-adv-x="334" d="M244 -96Q160 -96 118 -52T84 79L95 204Q98 237 88 251T50 266H22V364H50Q78 364 88 379T95 426L84 548Q76 634 118 678T244 723H302V624H259Q217 624 203 606T192 550L201 445Q205 403 198 374T166 326T95 295V333Q141
323 165 305T197 257T201 186L192 78Q190 39 203 22T259 4H302V-96H244Z" />
<glyph unicode="|" horiz-adv-x="291" d="M86 -130V773H205V-130H86Z" />
<glyph unicode="}" horiz-adv-x="334" d="M88 -96H29V4H72Q114 4 128 21T139 78L130 186Q127 228 134 257T166 304T236 333V295Q190 307 166 326T135 374T130 445L139 550Q143 588 129 606T72 624H29V723H88Q172 723 214 679T248 548L236 426Q233 394 243 379T282
364H310V266H282Q254 266 244 252T236 204L247 79Q255 -8 214 -52T88 -96Z" />
<glyph unicode="~" horiz-adv-x="547" d="M358 268Q328 268 306 275T266 293T231 310T191 318Q166 318 146 308T107 276L36 347Q67 391 104 413T188 435Q218 435 240 428T280 410T315 393T356 385Q380 385 401 395T441 427L511 356Q480 312 442 290T358 268Z" />
<glyph unicode="&#xa0;" horiz-adv-x="195" />
<glyph unicode="&#xa1;" horiz-adv-x="278" d="M69 -202L89 238H189L209 -202H69ZM139 327Q103 327 80 351T57 410Q57 446 80 469T139 493Q175 493 198 470T221 410Q221 375 198 351T139 327Z" />
<glyph unicode="&#xa2;" horiz-adv-x="522" d="M299 100Q226 100 167 133T74 223T40 351Q40 423 74 480T167 570T300 604Q356 604 404 583T488 523L403 438Q384 459 358 470T300 481Q263 481 235 465T190 420T174 352Q174 314 190 285T234 239T300 222Q333 222
359 233T404 267L489 182Q453 142 405 121T299 100ZM243 10V693H338V10H243Z" />
<glyph unicode="&#xa3;" horiz-adv-x="625" d="M151 0V486Q151 557 181 609T263 689T382 718Q453 718 501 690T578 619L491 532Q470 563 447 579T385 595Q356 595 334 583T299 547T287 491V0H151ZM59 0V121H561V0H59ZM59 291V394H466V291H59Z" />
<glyph unicode="&#xa4;" horiz-adv-x="600" d="M300 147Q239 147 191 174T114 247T85 352Q85 410 113 455T189 528T300 555Q361 555 410 529T487 456T515 352Q515 294 487 248T411 174T300 147ZM300 262Q325 262 344 273T375 305T386 351Q386 378 375 398T345
429T300 440Q275 440 256 429T225 397T214 351Q214 325 225 305T255 274T300 262ZM442 427L375 494L474 593L541 526L442 427ZM126 110L58 177L157 277L225 209L126 110ZM375 209L442 277L541 177L474 110L375 209ZM58 526L126 593L225 494L157 427L58 526Z" />
<glyph unicode="&#xa5;" horiz-adv-x="657" d="M279 264L46 703H199L367 338H293L461 703H611L376 264H279ZM261 0V329H397V0H261ZM228 481L257 388H66V481H228ZM66 221V313H591V221H66ZM412 388L450 481H591V388H412Z" />
<glyph unicode="&#xa6;" horiz-adv-x="291" d="M86 396V773H205V396H86ZM86 -130V248H205V-130H86Z" />
<glyph unicode="&#xa7;" horiz-adv-x="527" d="M269 141L268 231Q305 231 326 245T347 287Q347 314 327 329T277 355T211 376T146 405T96 455T76 540Q76 592 100 631T169 691T276 713Q339 713 392 689T478 616L398 535Q375 567 344 582T276 598Q241 598 222 584T203
546Q203 521 222 507T273 482T338 460T404 430T454 380T474 299Q474 251 448 216T375 161T269 141ZM251 -121Q187 -121 135 -96T48 -24L128 57Q152 25 183 10T251 -6Q286 -6 304 8T323 46Q323 71 304 85T254 110T189 132T123 162T73 212T53 293Q53 342 79 377T152
431T258 451L259 361Q222 361 201 347T180 305Q180 278 199 263T250 237T315 216T381 187T431 137T451 52Q451 0 427 -39T358 -99T251 -121Z" />
<glyph unicode="&#xa8;" horiz-adv-x="478" d="M131 553Q100 553 79 574T58 628Q58 660 79 681T131 703Q164 703 184 682T205 628Q205 596 185 575T131 553ZM346 553Q315 553 294 574T273 628Q273 660 294 681T346 703Q379 703 399 682T420 628Q420 596 400 575T346 553Z" />
<glyph unicode="&#xa9;" horiz-adv-x="817" d="M409 -10Q331 -10 266 18T152 95T77 211T51 353Q51 430 77 495T150 609T263 686T408 713Q487 713 553 686T667 610T741 495T767 352Q767 276 741 210T667 95T554 18T409 -10ZM408 39Q499 39 568 80T677 193T716 353Q716
441 677 511T569 623T408 665Q317 665 248 624T140 512T101 353Q101 265 140 194T248 81T408 39ZM420 149Q361 149 313 176T237 248T209 352Q209 410 237 456T313 528T422 555Q467 555 505 539T573 492L498 416Q484 432 465 439T422 447Q395 447 374 435T341 402T329
353Q329 324 341 303T374 269T422 257Q448 257 467 266T499 291L574 215Q544 182 505 166T420 149Z" />
<glyph unicode="&#xaa;" horiz-adv-x="358" d="M154 405Q114 405 83 425T33 479T14 557Q14 601 32 635T82 689T154 709Q198 709 228 684T262 623V491Q258 456 229 431T154 405ZM174 490Q202 490 219 509T237 557Q237 587 219 605T174 624Q146 624 129 605T111
557Q111 528 128 509T174 490ZM233 411V489L247 560L233 631V703H326V411H233Z" />
<glyph unicode="&#xab;" horiz-adv-x="493" d="M131 76L28 243L131 410H257L149 243L257 76H131ZM340 76L237 243L340 410H466L358 243L466 76H340Z" />
<glyph unicode="&#xac;" horiz-adv-x="555" d="M51 331V444H504V331H51ZM388 422H504V173H388V422Z" />
<glyph unicode="&#xad;" horiz-adv-x="462" d="M58 196V315H404V196H58Z" />
<glyph unicode="&#xae;" horiz-adv-x="552" d="M276 269Q212 269 163 298T85 379T56 492Q56 555 84 605T161 684T275 713Q340 713 390 684T468 604T496 492Q496 429 468 378T391 298T276 269ZM275 306Q329 306 370 330T434 397T458 492Q458 544 435 585T370 651T275
676Q222 676 181 652T117 586T94 492Q94 439 117 397T181 331T275 306ZM233 476V510H286Q302 510 311 518T320 541Q320 554 311 563T286 572H233V608H290Q322 608 343 589T364 542Q364 512 343 494T289 476H233ZM201 381V608H245V381H201ZM325 381L250 479L290
492L378 381H325Z" />
<glyph unicode="&#xaf;" horiz-adv-x="460" d="M40 681H420V580H40V681Z" />
<glyph unicode="&#xb0;" horiz-adv-x="394" d="M197 391Q149 391 112 412T54 470T33 551Q33 597 54 633T112 691T197 713Q245 713 282 692T340 634T361 551Q361 506 340 470T282 413T197 391ZM197 489Q223 489 240 507T257 551Q257 579 240 597T197 615Q171 615
154 597T137 551Q137 526 154 508T197 489Z" />
<glyph unicode="&#xb1;" horiz-adv-x="555" d="M51 351V464H504V351H51ZM220 578H336V238H220V578ZM51 88V202H504V88H51Z" />
<glyph unicode="&#xb2;" horiz-adv-x="340" d="M29 403L173 547Q184 558 188 566T192 584Q192 599 182 609T154 619Q138 619 125 609T94 575L24 638Q47 674 83 691T163 709Q226 709 262 677T298 589Q298 558 286 532T245 480L157 399L29 403ZM29 346V403L119 434H305V346H29Z"
/>
<glyph unicode="&#xb3;" horiz-adv-x="336" d="M148 339Q110 339 77 352T20 388L87 455Q96 443 113 436T147 428Q168 428 182 438T196 467Q196 485 181 495T141 505Q130 505 119 504T101 500L149 558Q173 563 185 565T206 568Q246 568 273 540T300 464Q300 408
259 374T148 339ZM101 500V558L177 646H290L213 558L101 500ZM48 615V703H290V646L212 615H48Z" />
<glyph unicode="&#xb4;" horiz-adv-x="308" d="M90 545L40 607L184 763L268 661L90 545Z" />
<glyph unicode="&#xb5;" horiz-adv-x="585" d="M86 -192V483H218V-192H86ZM331 -10Q246 -10 203 44T159 182L218 205Q218 155 244 133T305 111Q341 111 366 133T391 205V483H523V187Q523 130 498 86T430 16T331 -10Z" />
<glyph unicode="&#xb6;" horiz-adv-x="719" d="M390 261H279Q213 261 160 288T75 364T44 482Q44 550 75 599T159 676T279 703H680V592H286Q253 592 228 579T187 541T172 482Q172 447 187 423T227 385T286 372H390V261ZM427 -100H318V703H427V-100ZM602 -100H493V703H602V-100Z"
/>
<glyph unicode="&#xb7;" horiz-adv-x="164" d="M83 286Q47 286 24 310T1 369Q1 404 24 428T83 452Q118 452 141 428T164 369Q164 334 141 310T83 286Z" />
<glyph unicode="&#xb8;" horiz-adv-x="289" d="M136 -212Q98 -212 70 -203T14 -177L61 -118Q73 -127 88 -133T125 -139Q148 -139 158 -133T169 -117Q169 -106 159 -99T125 -91H83L116 13H199L174 -59L132 -26Q196 -25 233 -51T271 -119Q271 -159 234 -185T136 -212Z" />
<glyph unicode="&#xb9;" horiz-adv-x="267" d="M89 346V703H196V346H89ZM23 615V703H191V615H23Z" />
<glyph unicode="&#xba;" horiz-adv-x="346" d="M173 403Q128 403 92 423T34 478T13 556Q13 600 34 634T91 688T173 709Q219 709 255 689T312 635T334 556Q334 513 313 479T256 424T173 403ZM174 490Q202 490 219 508T237 556Q237 586 219 604T173 622Q145 622
128 604T110 556Q110 527 127 509T174 490Z" />
<glyph unicode="&#xbb;" horiz-adv-x="493" d="M236 76L344 243L236 410H362L465 243L362 76H236ZM27 76L135 243L27 410H153L256 243L153 76H27Z" />
<glyph unicode="&#xbc;" horiz-adv-x="692" d="M284 308L336 258L119 -14L23 82L284 308ZM390 398L338 448L555 721L651 625L390 398ZM140 346V703H247V346H140ZM74 615V703H242V615H74ZM359 116L464 353H575L469 116H359ZM359 59V116L388 147H658V59H359ZM528
-4V203H631V-4H528Z" />
<glyph unicode="&#xbd;" horiz-adv-x="687" d="M282 308L334 258L119 -14L23 82L282 308ZM390 398L338 448L555 721L651 625L390 398ZM140 346V703H247V346H140ZM74 615V703H242V615H74ZM364 53L508 197Q519 208 523 216T527 234Q527 249 517 259T489 269Q473
269 460 259T429 225L359 288Q382 324 418 341T498 359Q561 359 597 327T633 239Q633 208 621 182T580 130L492 49L364 53ZM364 -4V53L453 84H640V-4H364Z" />
<glyph unicode="&#xbe;" horiz-adv-x="687" d="M266 314L318 268L120 -14L24 82L266 314ZM421 392L369 438L564 721L660 625L421 392ZM175 339Q137 339 104 352T47 388L114 455Q123 443 140 436T174 428Q195 428 209 438T223 467Q223 485 208 495T168 505Q157
505 146 504T128 500L176 558Q200 563 212 565T233 568Q273 568 300 540T327 464Q327 408 286 374T175 339ZM128 500V558L204 646H317L240 558L128 500ZM75 615V703H317V646L239 615H75ZM336 116L440 353H551L445 116H336ZM336 59V116L364 147H634V59H336ZM505
-4V203H608V-4H505Z" />
<glyph unicode="&#xbf;" horiz-adv-x="486" d="M253 -213Q191 -213 143 -188T67 -118T39 -15Q39 40 63 81T130 150T229 189L179 140L189 239H297L300 85H266Q223 85 197 61T170 -2Q170 -28 181 -47T213 -77T259 -87Q300 -87 331 -65T383 -1L472 -80Q442 -141 386
-177T253 -213ZM243 327Q208 327 185 351T161 410Q161 446 184 469T243 493Q279 493 302 470T325 410Q325 375 302 351T243 327Z" />
<glyph unicode="&#xc0;" horiz-adv-x="715" d="M20 0L303 703H414L696 0H551L333 577H383L162 0H20ZM170 131V245H548V131H170ZM404 760L226 876L311 978L454 822L404 760Z" />
<glyph unicode="&#xc1;" horiz-adv-x="715" d="M20 0L303 703H414L696 0H551L333 577H383L162 0H20ZM170 131V245H548V131H170ZM293 765L243 827L387 983L471 881L293 765Z" />
<glyph unicode="&#xc2;" horiz-adv-x="715" d="M20 0L303 703H414L696 0H551L333 577H383L162 0H20ZM170 131V245H548V131H170ZM224 762L174 820L315 970H401L542 820L492 762L311 890L406 889L224 762Z" />
<glyph unicode="&#xc3;" horiz-adv-x="715" d="M20 0L303 703H414L696 0H551L333 577H383L162 0H20ZM170 131V245H548V131H170ZM431 765Q398 765 375 777T332 800T289 811Q265 811 250 802T220 774L154 840Q183 878 213 898T285 918Q318 918 341 907T384 884T427
872Q452 872 467 881T496 909L562 844Q533 806 503 786T431 765Z" />
<glyph unicode="&#xc4;" horiz-adv-x="715" d="M20 0L303 703H414L696 0H551L333 577H383L162 0H20ZM170 131V245H548V131H170ZM250 773Q219 773 198 794T177 848Q177 880 198 901T250 923Q283 923 303 902T324 848Q324 816 304 795T250 773ZM465 773Q434 773
413 794T392 848Q392 880 413 901T465 923Q498 923 518 902T539 848Q539 816 519 795T465 773Z" />
<glyph unicode="&#xc5;" horiz-adv-x="715" d="M20 0L303 703H414L696 0H551L333 577H383L162 0H20ZM170 131V245H548V131H170ZM359 658Q321 658 292 675T246 720T229 784Q229 820 246 849T292 894T358 911Q395 911 423 895T469 850T486 785Q486 749 469 720T424
675T359 658ZM359 739Q377 739 389 752T402 785Q402 804 390 817T359 830Q338 830 326 817T313 785Q313 766 325 753T359 739Z" />
<glyph unicode="&#xc6;" horiz-adv-x="988" d="M20 0L303 703H570V583H386L162 0H20ZM170 219V333H538V219H170ZM584 0V120H947V0H584ZM485 0V703H621V0H485ZM584 301V417H912V301H584ZM584 583V703H942V583H584Z" />
<glyph unicode="&#xc7;" horiz-adv-x="686" d="M398 -10Q321 -10 255 17T140 94T64 210T37 352Q37 428 63 494T139 609T254 686T398 714Q482 714 546 687T659 611L567 519Q538 551 496 569T398 587Q349 587 309 571T238 523T192 448T176 352Q176 299 192 256T238
182T308 133T398 116Q457 116 499 134T571 185L663 93Q614 44 549 17T398 -10ZM355 -212Q317 -212 289 -203T233 -177L280 -118Q292 -127 307 -133T344 -139Q367 -139 377 -133T388 -117Q388 -106 378 -99T344 -91H302L335 13H418L393 -59L351 -26Q415 -25 452
-51T490 -119Q490 -159 453 -185T355 -212Z" />
<glyph unicode="&#xc8;" horiz-adv-x="602" d="M72 0V703H208V0H72ZM172 0V120H561V0H172ZM172 301V417H526V301H172ZM172 583V703H556V583H172ZM368 760L190 876L275 978L418 822L368 760Z" />
<glyph unicode="&#xc9;" horiz-adv-x="602" d="M72 0V703H208V0H72ZM172 0V120H561V0H172ZM172 301V417H526V301H172ZM172 583V703H556V583H172ZM257 765L207 827L351 983L435 881L257 765Z" />
<glyph unicode="&#xca;" horiz-adv-x="602" d="M72 0V703H208V0H72ZM172 0V120H561V0H172ZM172 301V417H526V301H172ZM172 583V703H556V583H172ZM187 762L137 820L278 970H364L505 820L455 762L274 890L369 889L187 762Z" />
<glyph unicode="&#xcb;" horiz-adv-x="602" d="M72 0V703H208V0H72ZM172 0V120H561V0H172ZM172 301V417H526V301H172ZM172 583V703H556V583H172ZM214 773Q183 773 162 794T141 848Q141 880 162 901T214 923Q247 923 267 902T288 848Q288 816 268 795T214 773ZM429
773Q398 773 377 794T356 848Q356 880 377 901T429 923Q462 923 482 902T503 848Q503 816 483 795T429 773Z" />
<glyph unicode="&#xcc;" horiz-adv-x="280" d="M72 0V703H208V0H72ZM187 760L9 876L94 978L237 822L187 760Z" />
<glyph unicode="&#xcd;" horiz-adv-x="280" d="M72 0V703H208V0H72ZM76 765L26 827L170 983L254 881L76 765Z" />
<glyph unicode="&#xce;" horiz-adv-x="280" d="M72 0V703H208V0H72ZM6 762L-44 820L97 970H183L324 820L274 762L93 890L188 889L6 762Z" />
<glyph unicode="&#xcf;" horiz-adv-x="280" d="M72 0V703H208V0H72ZM33 773Q2 773 -19 794T-40 848Q-40 880 -19 901T33 923Q66 923 86 902T107 848Q107 816 87 795T33 773ZM248 773Q217 773 196 794T175 848Q175 880 196 901T248 923Q281 923 301 902T322 848Q322
816 302 795T248 773Z" />
<glyph unicode="&#xd0;" horiz-adv-x="767" d="M23 408H405V300H23V408ZM185 0V121H364Q432 121 483 149T562 230T591 353Q591 422 562 473T482 553T364 582H182V703H366Q444 703 510 677T626 604T703 492T731 352Q731 276 704 212T627 100T512 26T368 0H185ZM92
0V703H228V0H92Z" />
<glyph unicode="&#xd1;" horiz-adv-x="727" d="M72 0V703H167L208 567V0H72ZM558 0L141 540L167 703L584 163L558 0ZM558 0L519 132V703H656V0H558ZM437 765Q404 765 381 777T338 800T295 811Q271 811 256 802T226 774L160 840Q189 878 219 898T291 918Q324 918
347 907T390 884T433 872Q458 872 473 881T502 909L568 844Q539 806 509 786T437 765Z" />
<glyph unicode="&#xd2;" horiz-adv-x="800" d="M401 -11Q324 -11 258 17T142 94T64 210T36 353Q36 429 63 494T140 609T256 686T399 714Q477 714 543 687T658 610T736 494T764 352Q764 276 736 210T659 95T544 17T401 -11ZM399 116Q467 116 517 146T595 229T624
353Q624 405 608 448T562 522T491 571T399 588Q333 588 283 559T204 476T175 353Q175 300 191 256T237 181T308 133T399 116ZM447 760L269 876L354 978L497 822L447 760Z" />
<glyph unicode="&#xd3;" horiz-adv-x="800" d="M401 -11Q324 -11 258 17T142 94T64 210T36 353Q36 429 63 494T140 609T256 686T399 714Q477 714 543 687T658 610T736 494T764 352Q764 276 736 210T659 95T544 17T401 -11ZM399 116Q467 116 517 146T595 229T624
353Q624 405 608 448T562 522T491 571T399 588Q333 588 283 559T204 476T175 353Q175 300 191 256T237 181T308 133T399 116ZM336 765L286 827L430 983L514 881L336 765Z" />
<glyph unicode="&#xd4;" horiz-adv-x="800" d="M401 -11Q324 -11 258 17T142 94T64 210T36 353Q36 429 63 494T140 609T256 686T399 714Q477 714 543 687T658 610T736 494T764 352Q764 276 736 210T659 95T544 17T401 -11ZM399 116Q467 116 517 146T595 229T624
353Q624 405 608 448T562 522T491 571T399 588Q333 588 283 559T204 476T175 353Q175 300 191 256T237 181T308 133T399 116ZM266 762L216 820L357 970H443L584 820L534 762L353 890L448 889L266 762Z" />
<glyph unicode="&#xd5;" horiz-adv-x="800" d="M401 -11Q324 -11 258 17T142 94T64 210T36 353Q36 429 63 494T140 609T256 686T399 714Q477 714 543 687T658 610T736 494T764 352Q764 276 736 210T659 95T544 17T401 -11ZM399 116Q467 116 517 146T595 229T624
353Q624 405 608 448T562 522T491 571T399 588Q333 588 283 559T204 476T175 353Q175 300 191 256T237 181T308 133T399 116ZM473 765Q440 765 417 777T374 800T331 811Q307 811 292 802T262 774L196 840Q225 878 255 898T327 918Q360 918 383 907T426 884T469
872Q494 872 509 881T538 909L604 844Q575 806 545 786T473 765Z" />
<glyph unicode="&#xd6;" horiz-adv-x="800" d="M401 -11Q324 -11 258 17T142 94T64 210T36 353Q36 429 63 494T140 609T256 686T399 714Q477 714 543 687T658 610T736 494T764 352Q764 276 736 210T659 95T544 17T401 -11ZM399 116Q467 116 517 146T595 229T624
353Q624 405 608 448T562 522T491 571T399 588Q333 588 283 559T204 476T175 353Q175 300 191 256T237 181T308 133T399 116ZM292 773Q261 773 240 794T219 848Q219 880 240 901T292 923Q325 923 345 902T366 848Q366 816 346 795T292 773ZM507 773Q476 773 455
794T434 848Q434 880 455 901T507 923Q540 923 560 902T581 848Q581 816 561 795T507 773Z" />
<glyph unicode="&#xd7;" horiz-adv-x="537" d="M125 109L43 191L413 561L495 479L125 109ZM404 117L50 471L132 553L486 199L404 117Z" />
<glyph unicode="&#xd8;" horiz-adv-x="800" d="M679 718L766 631L121 -15L34 73L679 718ZM401 -11Q324 -11 258 17T142 94T64 210T36 353Q36 429 63 494T140 609T256 686T399 714Q477 714 543 687T658 610T736 494T764 352Q764 276 736 210T659 95T544 17T401
-11ZM399 116Q467 116 517 146T595 229T624 353Q624 405 608 448T562 522T491 571T399 588Q333 588 283 559T204 476T175 353Q175 300 191 256T237 181T308 133T399 116Z" />
<glyph unicode="&#xd9;" horiz-adv-x="696" d="M349 -10Q266 -10 202 26T100 127T63 272V703H199V268Q199 221 218 187T272 135T349 116Q392 116 425 134T477 187T497 267V703H634V271Q634 190 597 127T497 27T349 -10ZM395 760L217 876L302 978L445 822L395 760Z" />
<glyph unicode="&#xda;" horiz-adv-x="696" d="M349 -10Q266 -10 202 26T100 127T63 272V703H199V268Q199 221 218 187T272 135T349 116Q392 116 425 134T477 187T497 267V703H634V271Q634 190 597 127T497 27T349 -10ZM284 765L234 827L378 983L462 881L284 765Z" />
<glyph unicode="&#xdb;" horiz-adv-x="696" d="M349 -10Q266 -10 202 26T100 127T63 272V703H199V268Q199 221 218 187T272 135T349 116Q392 116 425 134T477 187T497 267V703H634V271Q634 190 597 127T497 27T349 -10ZM214 762L164 820L305 970H391L532 820L482
762L301 890L396 889L214 762Z" />
<glyph unicode="&#xdc;" horiz-adv-x="696" d="M349 -10Q266 -10 202 26T100 127T63 272V703H199V268Q199 221 218 187T272 135T349 116Q392 116 425 134T477 187T497 267V703H634V271Q634 190 597 127T497 27T349 -10ZM240 773Q209 773 188 794T167 848Q167 880
188 901T240 923Q273 923 293 902T314 848Q314 816 294 795T240 773ZM455 773Q424 773 403 794T382 848Q382 880 403 901T455 923Q488 923 508 902T529 848Q529 816 509 795T455 773Z" />
<glyph unicode="&#xdd;" horiz-adv-x="679" d="M290 271L18 703H175L386 357H296L507 703H662L387 271H290ZM272 0V344H409V0H272ZM275 765L225 827L369 983L453 881L275 765Z" />
<glyph unicode="&#xde;" horiz-adv-x="616" d="M172 138V249H335Q367 249 393 262T434 299T449 359Q449 393 434 418T393 456T335 469H172V580H349Q416 580 469 553T554 477T585 359Q585 291 554 242T470 165T349 138H172ZM72 0V703H208V0H72Z" />
<glyph unicode="&#xdf;" horiz-adv-x="585" d="M333 -10Q289 -10 262 0T211 29L269 128Q279 120 292 115T329 109Q355 109 376 121T409 156T422 210Q422 240 408 264T368 302T312 317H260V427H292Q317 427 336 438T366 471T377 522Q377 549 366 569T334 602T285
614Q242 614 215 589T188 519V0H58V516Q58 576 86 625T166 703T287 732Q355 732 403 705T478 632T505 532Q505 473 475 430T390 368L392 410Q444 400 482 372T540 302T561 205Q561 160 544 121T497 53T424 7T333 -10Z" />
<glyph unicode="&#xe0;" horiz-adv-x="588" d="M260 -10Q194 -10 141 23T58 113T28 241Q28 313 58 370T141 460T260 493Q312 493 353 472T418 414T445 329V155Q443 107 419 70T353 12T260 -10ZM284 111Q339 111 373 147T407 242Q407 280 392 309T349 355T284 372Q248
372 221 356T178 310T162 242Q162 203 177 174T220 128T284 111ZM400 0V130L421 248L400 364V483H530V0H400ZM330 540L152 656L237 758L380 602L330 540Z" />
<glyph unicode="&#xe1;" horiz-adv-x="588" d="M260 -10Q194 -10 141 23T58 113T28 241Q28 313 58 370T141 460T260 493Q312 493 353 472T418 414T445 329V155Q443 107 419 70T353 12T260 -10ZM284 111Q339 111 373 147T407 242Q407 280 392 309T349 355T284 372Q248
372 221 356T178 310T162 242Q162 203 177 174T220 128T284 111ZM400 0V130L421 248L400 364V483H530V0H400ZM219 545L169 607L313 763L397 661L219 545Z" />
<glyph unicode="&#xe2;" horiz-adv-x="588" d="M260 -10Q194 -10 141 23T58 113T28 241Q28 313 58 370T141 460T260 493Q312 493 353 472T418 414T445 329V155Q443 107 419 70T353 12T260 -10ZM284 111Q339 111 373 147T407 242Q407 280 392 309T349 355T284 372Q248
372 221 356T178 310T162 242Q162 203 177 174T220 128T284 111ZM400 0V130L421 248L400 364V483H530V0H400ZM150 542L100 600L241 750H327L468 600L418 542L237 670L332 669L150 542Z" />
<glyph unicode="&#xe3;" horiz-adv-x="588" d="M260 -10Q194 -10 141 23T58 113T28 241Q28 313 58 370T141 460T260 493Q312 493 353 472T418 414T445 329V155Q443 107 419 70T353 12T260 -10ZM284 111Q339 111 373 147T407 242Q407 280 392 309T349 355T284 372Q248
372 221 356T178 310T162 242Q162 203 177 174T220 128T284 111ZM400 0V130L421 248L400 364V483H530V0H400ZM357 545Q324 545 301 557T258 580T215 591Q191 591 176 582T146 554L80 620Q109 658 139 678T211 698Q244 698 267 687T310 664T353 652Q378 652 393
661T422 689L488 624Q459 586 429 566T357 545Z" />
<glyph unicode="&#xe4;" horiz-adv-x="588" d="M260 -10Q194 -10 141 23T58 113T28 241Q28 313 58 370T141 460T260 493Q312 493 353 472T418 414T445 329V155Q443 107 419 70T353 12T260 -10ZM284 111Q339 111 373 147T407 242Q407 280 392 309T349 355T284 372Q248
372 221 356T178 310T162 242Q162 203 177 174T220 128T284 111ZM400 0V130L421 248L400 364V483H530V0H400ZM176 553Q145 553 124 574T103 628Q103 660 124 681T176 703Q209 703 229 682T250 628Q250 596 230 575T176 553ZM391 553Q360 553 339 574T318 628Q318
660 339 681T391 703Q424 703 444 682T465 628Q465 596 445 575T391 553Z" />
<glyph unicode="&#xe5;" horiz-adv-x="588" d="M260 -10Q194 -10 141 23T58 113T28 241Q28 313 58 370T141 460T260 493Q312 493 353 472T418 414T445 329V155Q443 107 419 70T353 12T260 -10ZM284 111Q339 111 373 147T407 242Q407 280 392 309T349 355T284 372Q248
372 221 356T178 310T162 242Q162 203 177 174T220 128T284 111ZM400 0V130L421 248L400 364V483H530V0H400ZM285 535Q247 535 218 552T172 597T155 661Q155 697 172 726T218 771T284 788Q321 788 349 772T395 727T412 662Q412 626 395 597T350 552T285 535ZM285
616Q303 616 315 629T328 662Q328 681 316 694T285 707Q264 707 252 694T239 662Q239 643 251 630T285 616Z" />
<glyph unicode="&#xe6;" horiz-adv-x="927" d="M260 -10Q194 -10 141 23T58 113T28 241Q28 313 58 370T141 460T260 493Q312 493 353 472T418 414T445 329V155Q443 107 419 70T353 12T260 -10ZM284 111Q339 111 373 147T407 242Q407 280 392 309T349 355T284 372Q248
372 221 356T178 310T162 242Q162 203 177 174T220 128T284 111ZM400 0V130L421 248L400 364V483H530V0H400ZM685 -10Q613 -10 562 22T483 112T455 242Q455 295 470 341T514 421T583 475T674 494Q741 494 792 463T874 377T904 253Q904 240 903 227T898 196L491
195V293L837 294L783 253Q782 296 768 325T729 369T666 385Q627 385 599 368T555 319T539 244Q539 200 555 168T602 118T675 100Q711 100 741 112T794 150L871 73Q835 32 787 11T685 -10Z" />
<glyph unicode="&#xe7;" horiz-adv-x="492" d="M286 -10Q212 -10 153 23T60 113T26 241Q26 313 60 370T153 460T286 494Q343 494 391 473T474 413L390 328Q371 349 345 360T286 371Q250 371 222 355T177 310T160 242Q160 204 176 175T221 129T286 112Q319 112
345 123T391 157L476 72Q439 32 391 11T286 -10ZM251 -212Q213 -212 185 -203T129 -177L176 -118Q188 -127 203 -133T240 -139Q263 -139 273 -133T284 -117Q284 -106 274 -99T240 -91H198L231 13H314L289 -59L247 -26Q311 -25 348 -51T386 -119Q386 -159 349 -185T251
-212Z" />
<glyph unicode="&#xe8;" horiz-adv-x="541" d="M289 -10Q213 -10 154 22T61 112T26 242Q26 314 59 370T151 460T280 494Q350 494 403 463T487 377T518 253Q518 240 517 227T511 196L105 195V293L450 294L397 253Q395 296 382 325T343 369T280 385Q241 385 212
368T168 319T152 244Q152 200 168 168T216 118T288 100Q325 100 355 112T407 150L484 73Q449 32 399 11T289 -10ZM327 540L149 656L234 758L377 602L327 540Z" />
<glyph unicode="&#xe9;" horiz-adv-x="541" d="M289 -10Q213 -10 154 22T61 112T26 242Q26 314 59 370T151 460T280 494Q350 494 403 463T487 377T518 253Q518 240 517 227T511 196L105 195V293L450 294L397 253Q395 296 382 325T343 369T280 385Q241 385 212
368T168 319T152 244Q152 200 168 168T216 118T288 100Q325 100 355 112T407 150L484 73Q449 32 399 11T289 -10ZM216 545L166 607L310 763L394 661L216 545Z" />
<glyph unicode="&#xea;" horiz-adv-x="541" d="M289 -10Q213 -10 154 22T61 112T26 242Q26 314 59 370T151 460T280 494Q350 494 403 463T487 377T518 253Q518 240 517 227T511 196L105 195V293L450 294L397 253Q395 296 382 325T343 369T280 385Q241 385 212
368T168 319T152 244Q152 200 168 168T216 118T288 100Q325 100 355 112T407 150L484 73Q449 32 399 11T289 -10ZM146 542L96 600L237 750H323L464 600L414 542L233 670L328 669L146 542Z" />
<glyph unicode="&#xeb;" horiz-adv-x="541" d="M289 -10Q213 -10 154 22T61 112T26 242Q26 314 59 370T151 460T280 494Q350 494 403 463T487 377T518 253Q518 240 517 227T511 196L105 195V293L450 294L397 253Q395 296 382 325T343 369T280 385Q241 385 212
368T168 319T152 244Q152 200 168 168T216 118T288 100Q325 100 355 112T407 150L484 73Q449 32 399 11T289 -10ZM172 553Q141 553 120 574T99 628Q99 660 120 681T172 703Q205 703 225 682T246 628Q246 596 226 575T172 553ZM387 553Q356 553 335 574T314 628Q314
660 335 681T387 703Q420 703 440 682T461 628Q461 596 441 575T387 553Z" />
<glyph unicode="&#xec;" horiz-adv-x="247" d="M58 0V483H189V0H58ZM426 540L248 656L333 758L476 602L426 540Z" />
<glyph unicode="&#xed;" horiz-adv-x="247" d="M58 0V483H189V0H58ZM315 545L265 607L409 763L493 661L315 545Z" />
<glyph unicode="&#xee;" horiz-adv-x="247" d="M58 0V483H189V0H58ZM245 542L195 600L336 750H422L563 600L513 542L332 670L427 669L245 542Z" />
<glyph unicode="&#xef;" horiz-adv-x="247" d="M58 0V483H189V0H58ZM272 553Q241 553 220 574T199 628Q199 660 220 681T272 703Q305 703 325 682T346 628Q346 596 326 575T272 553ZM487 553Q456 553 435 574T414 628Q414 660 435 681T487 703Q520 703 540 682T561
628Q561 596 541 575T487 553Z" />
<glyph unicode="&#xf0;" horiz-adv-x="568" d="M285 -10Q213 -10 156 23T64 112T30 237Q30 304 60 355T143 436T257 466Q296 466 320 457T359 431T387 391L337 405L124 703H279L474 421Q539 327 539 234Q539 166 506 111T415 23T285 -10ZM285 112Q319 112 346
128T389 173T405 238Q405 274 390 302T347 346T285 363Q251 363 223 347T179 303T163 238Q163 202 179 174T222 129T285 112ZM103 486L71 569L435 703L468 621L103 486Z" />
<glyph unicode="&#xf1;" horiz-adv-x="562" d="M383 0V277Q383 320 356 347T286 374Q258 374 236 362T202 328T189 277L138 303Q138 360 162 402T230 469T329 493Q382 493 424 467T490 398T514 306V0H383ZM58 0V483H189V0H58ZM354 545Q321 545 298 557T255 580T212
591Q188 591 173 582T143 554L77 620Q106 658 136 678T208 698Q241 698 264 687T307 664T350 652Q375 652 390 661T419 689L485 624Q456 586 426 566T354 545Z" />
<glyph unicode="&#xf2;" horiz-adv-x="569" d="M285 -10Q212 -10 154 23T61 114T26 243Q26 314 60 370T153 460T284 494Q358 494 416 461T509 371T543 243Q543 172 509 115T417 24T285 -10ZM284 112Q321 112 349 128T393 174T409 242Q409 280 393 309T349 354T284
371Q248 371 220 355T176 309T160 242Q160 204 176 175T220 129T284 112ZM332 540L154 656L239 758L382 602L332 540Z" />
<glyph unicode="&#xf3;" horiz-adv-x="569" d="M285 -10Q212 -10 154 23T61 114T26 243Q26 314 60 370T153 460T284 494Q358 494 416 461T509 371T543 243Q543 172 509 115T417 24T285 -10ZM284 112Q321 112 349 128T393 174T409 242Q409 280 393 309T349 354T284
371Q248 371 220 355T176 309T160 242Q160 204 176 175T220 129T284 112ZM221 545L171 607L315 763L399 661L221 545Z" />
<glyph unicode="&#xf4;" horiz-adv-x="569" d="M285 -10Q212 -10 154 23T61 114T26 243Q26 314 60 370T153 460T284 494Q358 494 416 461T509 371T543 243Q543 172 509 115T417 24T285 -10ZM284 112Q321 112 349 128T393 174T409 242Q409 280 393 309T349 354T284
371Q248 371 220 355T176 309T160 242Q160 204 176 175T220 129T284 112ZM151 542L101 600L242 750H328L469 600L419 542L238 670L333 669L151 542Z" />
<glyph unicode="&#xf5;" horiz-adv-x="569" d="M285 -10Q212 -10 154 23T61 114T26 243Q26 314 60 370T153 460T284 494Q358 494 416 461T509 371T543 243Q543 172 509 115T417 24T285 -10ZM284 112Q321 112 349 128T393 174T409 242Q409 280 393 309T349 354T284
371Q248 371 220 355T176 309T160 242Q160 204 176 175T220 129T284 112ZM358 545Q325 545 302 557T259 580T216 591Q192 591 177 582T147 554L81 620Q110 658 140 678T212 698Q245 698 268 687T311 664T354 652Q379 652 394 661T423 689L489 624Q460 586 430 566T358
545Z" />
<glyph unicode="&#xf6;" horiz-adv-x="569" d="M285 -10Q212 -10 154 23T61 114T26 243Q26 314 60 370T153 460T284 494Q358 494 416 461T509 371T543 243Q543 172 509 115T417 24T285 -10ZM284 112Q321 112 349 128T393 174T409 242Q409 280 393 309T349 354T284
371Q248 371 220 355T176 309T160 242Q160 204 176 175T220 129T284 112ZM177 553Q146 553 125 574T104 628Q104 660 125 681T177 703Q210 703 230 682T251 628Q251 596 231 575T177 553ZM392 553Q361 553 340 574T319 628Q319 660 340 681T392 703Q425 703 445
682T466 628Q466 596 446 575T392 553Z" />
<glyph unicode="&#xf7;" horiz-adv-x="555" d="M51 278V392H504V278H51ZM278 80Q244 80 222 103T200 159Q200 194 222 216T278 239Q312 239 334 217T356 159Q356 126 334 103T278 80ZM278 431Q244 431 222 454T200 510Q200 545 222 568T278 591Q312 591 334 568T356
510Q356 478 334 455T278 431Z" />
<glyph unicode="&#xf8;" horiz-adv-x="569" d="M284 -10Q212 -10 153 23T60 114T26 243Q26 314 60 370T153 460T284 494Q358 494 416 461T509 371T543 243Q543 172 509 115T417 24T284 -10ZM284 104Q323 104 353 121T399 170T416 242Q416 283 399 313T353 361T284
379Q246 379 216 362T170 314T153 242Q153 202 169 171T216 122T284 104ZM87 -29L15 43L484 512L556 440L87 -29Z" />
<glyph unicode="&#xf9;" horiz-adv-x="528" d="M264 -10Q200 -10 151 17T73 92T45 203V483H177V206Q177 176 187 155T217 122T264 111Q305 111 328 136T351 206V483H482V203Q482 139 455 91T378 17T264 -10ZM311 540L133 656L218 758L361 602L311 540Z" />
<glyph unicode="&#xfa;" horiz-adv-x="528" d="M264 -10Q200 -10 151 17T73 92T45 203V483H177V206Q177 176 187 155T217 122T264 111Q305 111 328 136T351 206V483H482V203Q482 139 455 91T378 17T264 -10ZM200 545L150 607L294 763L378 661L200 545Z" />
<glyph unicode="&#xfb;" horiz-adv-x="528" d="M264 -10Q200 -10 151 17T73 92T45 203V483H177V206Q177 176 187 155T217 122T264 111Q305 111 328 136T351 206V483H482V203Q482 139 455 91T378 17T264 -10ZM130 542L80 600L221 750H307L448 600L398 542L217 670L312
669L130 542Z" />
<glyph unicode="&#xfc;" horiz-adv-x="528" d="M264 -10Q200 -10 151 17T73 92T45 203V483H177V206Q177 176 187 155T217 122T264 111Q305 111 328 136T351 206V483H482V203Q482 139 455 91T378 17T264 -10ZM157 553Q126 553 105 574T84 628Q84 660 105 681T157
703Q190 703 210 682T231 628Q231 596 211 575T157 553ZM372 553Q341 553 320 574T299 628Q299 660 320 681T372 703Q405 703 425 682T446 628Q446 596 426 575T372 553Z" />
<glyph unicode="&#xfd;" horiz-adv-x="526" d="M210 -4L8 483H150L284 111H236L375 483H518L303 -3L210 -4ZM76 -202L223 109L303 -3L215 -202H76ZM199 545L149 607L293 763L377 661L199 545Z" />
<glyph unicode="&#xfe;" horiz-adv-x="588" d="M326 -10Q274 -10 232 11T165 70T138 155V326Q140 374 165 411T232 471T326 493Q393 493 446 460T529 370T560 241Q560 170 530 113T446 23T326 -10ZM303 111Q339 111 366 127T410 173T426 242Q426 280 411 309T367
355T303 372Q268 372 240 356T197 310T181 242Q181 203 196 174T239 128T303 111ZM58 -202V723H189V356L167 239L188 122V-202H58Z" />
<glyph unicode="&#xff;" horiz-adv-x="526" d="M210 -4L8 483H150L284 111H236L375 483H518L303 -3L210 -4ZM76 -202L223 109L303 -3L215 -202H76ZM155 553Q124 553 103 574T82 628Q82 660 103 681T155 703Q188 703 208 682T229 628Q229 596 209 575T155 553ZM370
553Q339 553 318 574T297 628Q297 660 318 681T370 703Q403 703 423 682T444 628Q444 596 424 575T370 553Z" />
<glyph unicode="&#x2013;" horiz-adv-x="561" d="M58 201V310H503V201H58Z" />
<glyph unicode="&#x2014;" horiz-adv-x="864" d="M58 202V308H801V202H58Z" />
<glyph unicode="&#x2018;" horiz-adv-x="256" d="M211 696L140 564L99 553Q106 566 115 575T136 584Q162 584 183 562T205 507Q205 472 181 447T122 421Q88 421 63 446T38 507Q38 521 44 540T66 590L143 732L211 696Z" />
<glyph unicode="&#x2019;" horiz-adv-x="257" d="M46 439L116 570L158 582Q151 568 142 560T121 551Q95 551 74 572T52 627Q52 663 76 688T135 713Q169 713 194 688T219 627Q219 613 213 594T191 544L114 402L46 439Z" />
<glyph unicode="&#x201a;" horiz-adv-x="280" d="M57 -119L128 13L169 24Q162 11 153 2T132 -7Q107 -7 85 15T63 70Q63 106 87 131T147 156Q180 156 205 131T230 70Q230 56 224 37T202 -13L125 -155L57 -119Z" />
<glyph unicode="&#x201c;" horiz-adv-x="471" d="M211 696L140 564L99 553Q106 566 115 575T136 584Q162 584 183 562T205 507Q205 472 181 447T122 421Q88 421 63 446T38 507Q38 521 44 540T66 590L143 732L211 696ZM426 696L355 564L314 553Q321 566 330 575T351
584Q377 584 398 562T420 507Q420 472 396 447T336 421Q303 421 278 446T253 507Q253 521 259 540T281 590L358 732L426 696Z" />
<glyph unicode="&#x201d;" horiz-adv-x="471" d="M261 439L331 570L372 582Q366 568 357 560T336 551Q310 551 288 572T266 627Q266 663 290 688T350 713Q383 713 408 688T433 627Q433 613 428 594T406 544L328 402L261 439ZM46 439L116 570L158 582Q151 568 142
560T121 551Q95 551 74 572T52 627Q52 663 76 688T135 713Q169 713 194 688T219 627Q219 613 213 594T191 544L114 402L46 439Z" />
<glyph unicode="&#x201e;" horiz-adv-x="494" d="M273 -118L343 13L384 25Q378 11 369 3T348 -6Q322 -6 300 15T278 70Q278 106 302 131T362 156Q395 156 420 131T445 70Q445 56 440 37T418 -13L340 -155L273 -118ZM58 -118L128 13L170 25Q163 11 154 3T133 -6Q107
-6 86 15T64 70Q64 106 88 131T147 156Q181 156 206 131T231 70Q231 56 225 37T203 -13L126 -155L58 -118Z" />
<glyph unicode="&#x2022;" horiz-adv-x="346" d="M173 255Q140 255 114 270T74 311T59 369Q59 400 73 426T114 467T173 483Q206 483 231 468T271 426T286 369Q286 338 272 312T232 270T173 255Z" />
<glyph unicode="&#x2039;" horiz-adv-x="284" d="M131 76L28 243L131 410H257L149 243L257 76H131Z" />
<glyph unicode="&#x203a;" horiz-adv-x="284" d="M27 76L135 243L27 410H153L256 243L153 76H27Z" />
</font>
</defs>
</svg>
